<svg xmlns="http://www.w3.org/2000/svg" viewBox="0 0 411.73 122.9"><defs><style>.a,.c{fill:#326158;}.a,.b,.c,.d,.e{fill-rule:evenodd;}.b{fill:#77a739;}.b,.c,.d,.e{stroke:#fff;stroke-miterlimit:22.93;stroke-width:0.57px;}.d{fill:#578448;}.e{fill:#96c123;}</style></defs><title>logo</title><path class="a" d="M160.57,32.74h-5.7V51.52a4.58,4.58,0,0,1-.19,1.41,2.44,2.44,0,0,1-.53,1,2.29,2.29,0,0,1-.83.6,2.86,2.86,0,0,1-2.1,0,2.21,2.21,0,0,1-.83-.6,3.34,3.34,0,0,1-.76-2.38V32.74h-5.7a3.68,3.68,0,0,1-1.17-.16,2.1,2.1,0,0,1-.82-.45,2,2,0,0,1-.49-.68,2.23,2.23,0,0,1-.16-.88,2.17,2.17,0,0,1,.17-.89A1.73,1.73,0,0,1,142,29a1.87,1.87,0,0,1,.81-.44,4.23,4.23,0,0,1,1.14-.14h16.64a4.2,4.2,0,0,1,1.19.15,2.26,2.26,0,0,1,.84.46,2,2,0,0,1,.48.68,2.34,2.34,0,0,1,0,1.75,2,2,0,0,1-.48.68,2.39,2.39,0,0,1-.85.45,3.74,3.74,0,0,1-1.18.16ZM179.46,46.1H170a7.55,7.55,0,0,0,.19,1.54,5.85,5.85,0,0,0,.49,1.35,4.24,4.24,0,0,0,.73,1.09,4.36,4.36,0,0,0,1,.79,4.37,4.37,0,0,0,2.35.65,7.55,7.55,0,0,0,.83-.05,5.18,5.18,0,0,0,.75-.17,5.83,5.83,0,0,0,.7-.25,4.42,4.42,0,0,0,.68-.36c.23-.15.45-.3.65-.46s.39-.32.57-.48.42-.36.67-.59.51-.48.82-.75a1.25,1.25,0,0,1,.44-.24,1.82,1.82,0,0,1,.6-.08,2,2,0,0,1,.68.1,1.44,1.44,0,0,1,.51.3A1.14,1.14,0,0,1,183,49a1.69,1.69,0,0,1,.11.66,2.14,2.14,0,0,1-.13.71,4.7,4.7,0,0,1-.37.81A5.64,5.64,0,0,1,182,52a7.23,7.23,0,0,1-.89.84,8.63,8.63,0,0,1-1.17.71,9.91,9.91,0,0,1-1.43.59,9.07,9.07,0,0,1-1.67.4,12.9,12.9,0,0,1-1.91.14,11.91,11.91,0,0,1-4.12-.66,7.94,7.94,0,0,1-3.1-2,8.61,8.61,0,0,1-1.92-3.12,11.92,11.92,0,0,1-.65-4.06,12.54,12.54,0,0,1,.17-2.06,11,11,0,0,1,.48-1.92,9.37,9.37,0,0,1,.76-1.67,7.61,7.61,0,0,1,1.09-1.43A7.12,7.12,0,0,1,169,36.64a9.24,9.24,0,0,1,1.65-.87,12.34,12.34,0,0,1,1.88-.5,11.94,11.94,0,0,1,4.68.11,8.08,8.08,0,0,1,2.22.9,8.47,8.47,0,0,1,1.77,1.36,7.56,7.56,0,0,1,1.26,1.71,8.66,8.66,0,0,1,.77,1.92,8,8,0,0,1,.24,1.94,3.79,3.79,0,0,1-.26,1.49,1.78,1.78,0,0,1-.78.86,6.46,6.46,0,0,1-2.93.54ZM170,43.36h8.73a7.6,7.6,0,0,0-.42-2.16,4.27,4.27,0,0,0-.91-1.52,3.49,3.49,0,0,0-1.33-.93,4.57,4.57,0,0,0-1.71-.3,4.39,4.39,0,0,0-1.64.3,3.54,3.54,0,0,0-1.32.93,6.41,6.41,0,0,0-1.4,3.68Zm22.2,4.4v4a4.09,4.09,0,0,1-.17,1.28,2.16,2.16,0,0,1-1.28,1.46,2.4,2.4,0,0,1-1,.19,2.26,2.26,0,0,1-.94-.19,2.55,2.55,0,0,1-.79-.53,2.5,2.5,0,0,1-.49-.93,4.81,4.81,0,0,1-.16-1.28V38.38a4.16,4.16,0,0,1,.59-2.44,2,2,0,0,1,1.76-.81,2,2,0,0,1,1.73.75,2.76,2.76,0,0,1,.41.95,5.94,5.94,0,0,1,.17,1.29,12,12,0,0,1,.87-1.29,5.89,5.89,0,0,1,.9-.95,3.28,3.28,0,0,1,1.06-.57,4.72,4.72,0,0,1,1.36-.18,6.26,6.26,0,0,1,1.49.18,7.42,7.42,0,0,1,1.47.57,3.08,3.08,0,0,1,1.06.89,2,2,0,0,1,.35,1.14,2,2,0,0,1-.15.78,1.72,1.72,0,0,1-.47.66,2,2,0,0,1-.62.44,1.72,1.72,0,0,1-.68.14,1.91,1.91,0,0,1-.45-.09q-.31-.08-.81-.24a6.84,6.84,0,0,0-1-.24,4.32,4.32,0,0,0-.84-.08,2.61,2.61,0,0,0-1.73.54,2.89,2.89,0,0,0-.59.69,4.84,4.84,0,0,0-.46,1,9,9,0,0,0-.3,1.19c-.08.44-.15.91-.2,1.41s-.07,1.07-.1,1.68,0,1.28,0,2Zm15.82,0v4a4.09,4.09,0,0,1-.17,1.28,2.29,2.29,0,0,1-.52.93,2.08,2.08,0,0,1-.77.53,2.35,2.35,0,0,1-1,.19,2.26,2.26,0,0,1-.94-.19,2.44,2.44,0,0,1-.79-.53,2.5,2.5,0,0,1-.49-.93,4.43,4.43,0,0,1-.16-1.28V38.38a4.16,4.16,0,0,1,.59-2.44,2,2,0,0,1,1.75-.81,2,2,0,0,1,1.74.75,2.76,2.76,0,0,1,.41.95,6.62,6.62,0,0,1,.17,1.29,10.7,10.7,0,0,1,.87-1.29,5.89,5.89,0,0,1,.9-.95,3.23,3.23,0,0,1,1.05-.57,4.84,4.84,0,0,1,1.37-.18,6.26,6.26,0,0,1,1.49.18,7.42,7.42,0,0,1,1.47.57,3.08,3.08,0,0,1,1.06.89,2.14,2.14,0,0,1,.2,1.92,1.83,1.83,0,0,1-.47.66,2.08,2.08,0,0,1-.62.44,1.76,1.76,0,0,1-.68.14,2.06,2.06,0,0,1-.46-.09c-.21-.05-.48-.13-.8-.24a7.19,7.19,0,0,0-1-.24,4.39,4.39,0,0,0-.84-.08,2.61,2.61,0,0,0-1.73.54,2.68,2.68,0,0,0-.59.69,4.84,4.84,0,0,0-.46,1,7.64,7.64,0,0,0-.31,1.19c-.07.44-.14.91-.19,1.41s-.08,1.07-.1,1.68-.05,1.28-.05,2ZM231.28,52a16.55,16.55,0,0,1-1.72,1.18,11.35,11.35,0,0,1-1.67.84,7.7,7.7,0,0,1-1.73.52,10.88,10.88,0,0,1-1.92.17,7.34,7.34,0,0,1-1.73-.19A6.66,6.66,0,0,1,221,54a6.48,6.48,0,0,1-1.25-.88,4.9,4.9,0,0,1-.92-1.11,5.16,5.16,0,0,1-.76-2.71,5.28,5.28,0,0,1,.32-1.85,5.06,5.06,0,0,1,1-1.54,5.45,5.45,0,0,1,1.48-1.15,6.94,6.94,0,0,1,1.95-.7l.79-.18c.38-.08.87-.18,1.48-.28l1.69-.38,1.42-.31c.87-.22,1.8-.47,2.82-.76a8.21,8.21,0,0,0-.25-1.65,3.38,3.38,0,0,0-.51-1.13,2,2,0,0,0-1.06-.68,5.9,5.9,0,0,0-1.76-.22,8.34,8.34,0,0,0-1.6.13,3.5,3.5,0,0,0-2,1,4.34,4.34,0,0,0-.71.9c-.24.32-.43.6-.58.83a5.76,5.76,0,0,1-.36.5,1.55,1.55,0,0,1-1.19.33,2,2,0,0,1-1.41-.54,1.52,1.52,0,0,1-.44-.58,1.81,1.81,0,0,1-.14-.72,3.71,3.71,0,0,1,.22-1.28,4.64,4.64,0,0,1,.68-1.22A5.42,5.42,0,0,1,221,36.75a8.67,8.67,0,0,1,1.67-.87,9.24,9.24,0,0,1,2.12-.6,17.28,17.28,0,0,1,2.61-.19,13,13,0,0,1,5,.76,5,5,0,0,1,1.56,1,4.78,4.78,0,0,1,1,1.41,7.24,7.24,0,0,1,.57,1.87,13.7,13.7,0,0,1,.19,2.43v2.85c0,.4,0,.81,0,1.25s0,.9,0,1.39a9.8,9.8,0,0,0,.43,2.81q.25.77.36,1.23a2.93,2.93,0,0,1,.11.69,1.47,1.47,0,0,1-.18.71,2.57,2.57,0,0,1-.5.62,2.13,2.13,0,0,1-.76.47,2.34,2.34,0,0,1-.83.15,1.74,1.74,0,0,1-.74-.17,2.72,2.72,0,0,1-.74-.52,6.66,6.66,0,0,1-.73-.86c-.25-.34-.52-.73-.79-1.16ZM231,45c-.35.13-.78.26-1.29.4s-1.12.29-1.78.43l-1.71.37-1.11.24a4.4,4.4,0,0,0-.75.31,3.46,3.46,0,0,0-.73.49,1.73,1.73,0,0,0-.52.71,2.52,2.52,0,0,0-.17,1,2.36,2.36,0,0,0,.21,1,2.78,2.78,0,0,0,2.79,1.64,5.65,5.65,0,0,0,1.37-.17,5.12,5.12,0,0,0,1.27-.48,5.25,5.25,0,0,0,1-.7,3.8,3.8,0,0,0,.73-.89,4.54,4.54,0,0,0,.48-1.46,12.09,12.09,0,0,0,.17-2.15V45Zm25.09,3.39a6.74,6.74,0,0,1-.24,1.85,5.25,5.25,0,0,1-1.93,2.79,6.76,6.76,0,0,1-1.66.93,11.11,11.11,0,0,1-2.1.53,15.28,15.28,0,0,1-2.52.19,13.87,13.87,0,0,1-2.4-.2,8.69,8.69,0,0,1-2-.6,9.2,9.2,0,0,1-1.6-.89,5.41,5.41,0,0,1-1.14-1.09,4,4,0,0,1-.87-2.39,2,2,0,0,1,.14-.74,2,2,0,0,1,.44-.63,1.91,1.91,0,0,1,1.41-.54,2.73,2.73,0,0,1,.67.08,1.15,1.15,0,0,1,.48.28,2.88,2.88,0,0,1,.41.44,4.62,4.62,0,0,1,.39.61,6.58,6.58,0,0,0,.81,1.12,4.49,4.49,0,0,0,1,.79,5.24,5.24,0,0,0,2.81.65,4.09,4.09,0,0,0,2.39-.65,2.36,2.36,0,0,0,.68-.7,1.49,1.49,0,0,0,.22-.78,2.37,2.37,0,0,0-.24-1.09,1.75,1.75,0,0,0-.7-.75,6.53,6.53,0,0,0-1.28-.57,19.08,19.08,0,0,0-1.9-.55q-1.25-.3-2.25-.63a17,17,0,0,1-1.79-.67,6.77,6.77,0,0,1-1.41-.78,5.73,5.73,0,0,1-1.08-1,3.86,3.86,0,0,1-.7-1.25,4.2,4.2,0,0,1-.24-1.49,4.83,4.83,0,0,1,.21-1.42,5.63,5.63,0,0,1,.65-1.33,5.85,5.85,0,0,1,1.06-1.17,7,7,0,0,1,1.47-.89,8.36,8.36,0,0,1,1.87-.57,12.76,12.76,0,0,1,2.21-.18,14,14,0,0,1,1.76.1,15.17,15.17,0,0,1,1.6.29A9.28,9.28,0,0,1,252,36a6.78,6.78,0,0,1,1.14.59,6.26,6.26,0,0,1,.87.68,4.6,4.6,0,0,1,.65.76,3.45,3.45,0,0,1,.37.78,2.36,2.36,0,0,1,.13.78,2,2,0,0,1-.13.74,1.53,1.53,0,0,1-.41.59,1.68,1.68,0,0,1-.67.41,2.88,2.88,0,0,1-.92.13,2.07,2.07,0,0,1-.68-.1,2,2,0,0,1-.58-.33c-.16-.14-.34-.32-.54-.52s-.42-.45-.65-.74a4,4,0,0,0-.59-.63,4.49,4.49,0,0,0-.68-.49,3,3,0,0,0-.89-.33,5.48,5.48,0,0,0-1.13-.11,4,4,0,0,0-2.17.55,2.45,2.45,0,0,0-.65.63,1.46,1.46,0,0,0-.21.77,1.34,1.34,0,0,0,.16.68,1.59,1.59,0,0,0,.49.55,3.37,3.37,0,0,0,.73.45,4.57,4.57,0,0,0,1,.35c.36.1.78.23,1.27.35l1.69.44a19.62,19.62,0,0,1,2,.6,11.25,11.25,0,0,1,1.62.7,6.82,6.82,0,0,1,1.25.84,5.23,5.23,0,0,1,.92,1,3.83,3.83,0,0,1,.54,1.09,4.2,4.2,0,0,1,.18,1.25ZM282.34,52v-.47c-.32.36-.64.7-1,1a10,10,0,0,1-.95.81,6.12,6.12,0,0,1-1,.6,7.43,7.43,0,0,1-1.08.45,6.78,6.78,0,0,1-1.14.27,8.32,8.32,0,0,1-1.24.09,7.15,7.15,0,0,1-1.68-.19,7.37,7.37,0,0,1-1.54-.53,9,9,0,0,1-1.37-.9,7.33,7.33,0,0,1-1.16-1.2,8.31,8.31,0,0,1-.95-1.48,12.91,12.91,0,0,1-.71-1.7,12.79,12.79,0,0,1-.4-1.92,15.23,15.23,0,0,1-.14-2.05,13.47,13.47,0,0,1,.55-4,8,8,0,0,1,1.65-3,7.11,7.11,0,0,1,2.56-1.9,8.1,8.1,0,0,1,3.26-.63,8.9,8.9,0,0,1,1.91.19,6.6,6.6,0,0,1,1.59.53,8.7,8.7,0,0,1,1.4.9,10.48,10.48,0,0,1,1.38,1.31V31a4.94,4.94,0,0,1,.16-1.29,2.77,2.77,0,0,1,.42-.95,1.93,1.93,0,0,1,.73-.57,2.47,2.47,0,0,1,1-.19,2.7,2.7,0,0,1,1,.17,1.78,1.78,0,0,1,.72.52,2.17,2.17,0,0,1,.44.87,4.68,4.68,0,0,1,.14,1.19V52a4.25,4.25,0,0,1-.15,1.19,2.4,2.4,0,0,1-.46.87,2,2,0,0,1-.74.52,2.43,2.43,0,0,1-.92.17,2.14,2.14,0,0,1-.89-.18A2,2,0,0,1,283,54a2.32,2.32,0,0,1-.49-.87,4.06,4.06,0,0,1-.16-1.16Zm-9.46-7.07a9.38,9.38,0,0,0,.16,1.81,7.87,7.87,0,0,0,.45,1.51,5.29,5.29,0,0,0,.71,1.22,3.77,3.77,0,0,0,1,.87,3.58,3.58,0,0,0,1.1.52,4.42,4.42,0,0,0,1.21.17,4.9,4.9,0,0,0,1.21-.16,4.51,4.51,0,0,0,1.1-.49,4.33,4.33,0,0,0,.94-.84,5.09,5.09,0,0,0,.72-1.18,6.63,6.63,0,0,0,.49-1.56,10.69,10.69,0,0,0,.16-1.87,10.1,10.1,0,0,0-.16-1.79,6.29,6.29,0,0,0-.49-1.5,5.24,5.24,0,0,0-.72-1.23,5.3,5.3,0,0,0-.94-.9,4.34,4.34,0,0,0-1.13-.54,4.19,4.19,0,0,0-1.22-.18,3.9,3.9,0,0,0-3.3,1.64,5.13,5.13,0,0,0-.67,1.25,7,7,0,0,0-.44,1.51,10.57,10.57,0,0,0-.14,1.74Zm32.28,1.22h-9.42a8.32,8.32,0,0,0,.19,1.54,5.87,5.87,0,0,0,.5,1.35,4.21,4.21,0,0,0,.72,1.09,4.58,4.58,0,0,0,2.09,1.28,4.51,4.51,0,0,0,1.23.16,7.58,7.58,0,0,0,.84-.05,5.86,5.86,0,0,0,.75-.17,6.52,6.52,0,0,0,.7-.25,4.83,4.83,0,0,0,.67-.36c.24-.15.45-.3.66-.46s.39-.32.57-.48.41-.36.66-.59.51-.48.82-.75a1.34,1.34,0,0,1,.44-.24,1.84,1.84,0,0,1,.61-.08,2.07,2.07,0,0,1,.68.1,1.53,1.53,0,0,1,.51.3,1.2,1.2,0,0,1,.35.49,1.69,1.69,0,0,1,.12.66,2.14,2.14,0,0,1-.13.71,5.74,5.74,0,0,1-.38.81,5.55,5.55,0,0,1-.65.86,8.17,8.17,0,0,1-.9.84,8.5,8.5,0,0,1-1.16.71,10.55,10.55,0,0,1-1.44.59,9.07,9.07,0,0,1-1.67.4,12.9,12.9,0,0,1-1.91.14,11.91,11.91,0,0,1-4.12-.66,8.08,8.08,0,0,1-3.1-2,8.75,8.75,0,0,1-1.92-3.12,11.93,11.93,0,0,1-.64-4.06,12.55,12.55,0,0,1,.16-2.06,11,11,0,0,1,.49-1.92,8.71,8.71,0,0,1,.76-1.67,7.16,7.16,0,0,1,1.08-1.43,7.51,7.51,0,0,1,1.35-1.16,8.61,8.61,0,0,1,1.65-.87,12.21,12.21,0,0,1,1.87-.5,12,12,0,0,1,4.69.11,8.14,8.14,0,0,1,2.21.9,8.28,8.28,0,0,1,1.78,1.36,7.87,7.87,0,0,1,1.26,1.71,8.62,8.62,0,0,1,.76,1.92,8,8,0,0,1,.25,1.94,3.61,3.61,0,0,1-.27,1.49,1.78,1.78,0,0,1-.78.86,6.43,6.43,0,0,1-2.93.54Zm-9.42-2.74h8.74a8.36,8.36,0,0,0-.42-2.16,4.29,4.29,0,0,0-.92-1.52,3.54,3.54,0,0,0-1.32-.93,4.65,4.65,0,0,0-1.71-.3,4.35,4.35,0,0,0-1.64.3,3.54,3.54,0,0,0-1.32.93A6.35,6.35,0,0,0,295.74,43.36Z"/><path class="a" d="M160.16,114.43a3.4,3.4,0,0,1-.08.69,4.38,4.38,0,0,1-.67,1.5,7,7,0,0,1-.61.76,5.26,5.26,0,0,1-.8.67,5.82,5.82,0,0,1-1,.53,4.77,4.77,0,0,1-1.18.35,7.32,7.32,0,0,1-1.36.12c-.37,0-.72,0-1.06,0s-.64-.09-.94-.15a8.68,8.68,0,0,1-.86-.28,7,7,0,0,1-.78-.38,5.5,5.5,0,0,1-.7-.52,5.77,5.77,0,0,1-.66-.65,6.74,6.74,0,0,1-.93-1.46q-.18-.41-.33-.84a8.84,8.84,0,0,1-.25-.88,7.39,7.39,0,0,1-.15-1c0-.33,0-.67,0-1a10.06,10.06,0,0,1,.12-1.59,7.2,7.2,0,0,1,.36-1.42,6.83,6.83,0,0,1,1.4-2.27,6.6,6.6,0,0,1,1-.83,6,6,0,0,1,1.15-.6,5.91,5.91,0,0,1,1.26-.37,7.42,7.42,0,0,1,1.34-.12,6.89,6.89,0,0,1,1.6.17,5.28,5.28,0,0,1,1.41.51,6.59,6.59,0,0,1,1.16.74,4.59,4.59,0,0,1,.86.91,4.15,4.15,0,0,1,.52,1,2.59,2.59,0,0,1,.18.92,1.13,1.13,0,0,1-.09.45,1.69,1.69,0,0,1-.24.41,1.33,1.33,0,0,1-.38.27,1,1,0,0,1-.46.1,1.59,1.59,0,0,1-.46-.07,1.07,1.07,0,0,1-.35-.2,2.11,2.11,0,0,1-.28-.34c-.1-.15-.21-.32-.33-.54a5.6,5.6,0,0,0-.59-.9,3.24,3.24,0,0,0-.69-.65,3,3,0,0,0-.83-.38,4,4,0,0,0-1-.13,3.47,3.47,0,0,0-1.56.34,3.4,3.4,0,0,0-1.2,1,4.5,4.5,0,0,0-.77,1.6,8.28,8.28,0,0,0-.26,2.15,9.63,9.63,0,0,0,.11,1.49,5.75,5.75,0,0,0,.34,1.21,4.08,4.08,0,0,0,.55.94,3.17,3.17,0,0,0,.75.67,2.8,2.8,0,0,0,.9.39,3.84,3.84,0,0,0,1,.14,3.94,3.94,0,0,0,1.12-.15,3,3,0,0,0,.94-.45,3.51,3.51,0,0,0,.74-.75,3.76,3.76,0,0,0,.52-1,4,4,0,0,1,.2-.5,2.38,2.38,0,0,1,.25-.39.82.82,0,0,1,.34-.27,1.37,1.37,0,0,1,.51-.08,1.25,1.25,0,0,1,.88.35,1.18,1.18,0,0,1,.35.87Zm12-.64a6.57,6.57,0,0,1-.09,1.11,5.92,5.92,0,0,1-.28,1,4.42,4.42,0,0,1-.44.9,4.13,4.13,0,0,1-.59.77,5.09,5.09,0,0,1-.76.63,4.51,4.51,0,0,1-.87.46,4.87,4.87,0,0,1-1,.28,6.81,6.81,0,0,1-1.13.09,6.6,6.6,0,0,1-1.12-.09,4.46,4.46,0,0,1-1-.28,4.51,4.51,0,0,1-.87-.46,5.65,5.65,0,0,1-.76-.63,5.42,5.42,0,0,1-.59-.77,5.36,5.36,0,0,1-.44-.9,4.85,4.85,0,0,1-.27-1,5.83,5.83,0,0,1-.1-1.12,5.94,5.94,0,0,1,.1-1.13,5.21,5.21,0,0,1,.27-1,5.36,5.36,0,0,1,.44-.9,4.91,4.91,0,0,1,.59-.77,5.55,5.55,0,0,1,.75-.61,5.62,5.62,0,0,1,.88-.46,7.86,7.86,0,0,1,1-.27,6.57,6.57,0,0,1,1.11-.09,5.83,5.83,0,0,1,1.12.1,5.46,5.46,0,0,1,1,.28,5,5,0,0,1,.89.46,3.94,3.94,0,0,1,.74.61,4.08,4.08,0,0,1,.6.77,5.4,5.4,0,0,1,.45.9,6.34,6.34,0,0,1,.26,1,6.77,6.77,0,0,1,.09,1.12Zm-2.61,0a5,5,0,0,0-.17-1.41,3.09,3.09,0,0,0-.52-1.06,2.28,2.28,0,0,0-1.87-.87,2.34,2.34,0,0,0-.71.1,2.24,2.24,0,0,0-.63.29,2.15,2.15,0,0,0-.51.49,2.55,2.55,0,0,0-.38.67,3.49,3.49,0,0,0-.24.83,5.86,5.86,0,0,0-.07,1,5.65,5.65,0,0,0,.07.95,3.7,3.7,0,0,0,.24.82,2.68,2.68,0,0,0,.87,1.16,2,2,0,0,0,.63.3,2.48,2.48,0,0,0,.73.11,2.53,2.53,0,0,0,1.05-.22,2.28,2.28,0,0,0,.82-.68,3.83,3.83,0,0,0,.69-2.44Zm13.25.19v3.44a2.5,2.5,0,0,1-.09.71,1.29,1.29,0,0,1-.7.82,1.38,1.38,0,0,1-.55.1,1.32,1.32,0,0,1-.53-.1,1,1,0,0,1-.42-.31,1.15,1.15,0,0,1-.28-.51,2.5,2.5,0,0,1-.09-.71V113.3a14.23,14.23,0,0,0-.06-1.51,2.28,2.28,0,0,0-.13-.5,1.47,1.47,0,0,0-.24-.4,1.14,1.14,0,0,0-.93-.35,2.33,2.33,0,0,0-1,.22,1.37,1.37,0,0,0-.62.66,6.12,6.12,0,0,0-.41,2.5v3.5a2.5,2.5,0,0,1-.09.71,1.15,1.15,0,0,1-.28.51,1,1,0,0,1-.42.31,1.29,1.29,0,0,1-.53.1,1.4,1.4,0,0,1-.54-.1,1.27,1.27,0,0,1-.43-.31,1.24,1.24,0,0,1-.27-.51,2.17,2.17,0,0,1-.1-.71V110a2.43,2.43,0,0,1,.08-.64,1.41,1.41,0,0,1,.25-.47,1.21,1.21,0,0,1,.4-.28,1.1,1.1,0,0,1,.49-.1,1.29,1.29,0,0,1,.49.08,1.49,1.49,0,0,1,.41.26,1.39,1.39,0,0,1,.26.44,1.57,1.57,0,0,1,.09.56v.25a4.58,4.58,0,0,1,.69-.7,4.5,4.5,0,0,1,.74-.49,5,5,0,0,1,.82-.29,4.26,4.26,0,0,1,.89-.1,4.4,4.4,0,0,1,.92.1,3.51,3.51,0,0,1,.77.29,2.54,2.54,0,0,1,.64.49,3.71,3.71,0,0,1,.51.7,5.05,5.05,0,0,1,.68-.7,3.76,3.76,0,0,1,1.52-.78,4.07,4.07,0,0,1,.87-.1,4.32,4.32,0,0,1,1,.11,3.12,3.12,0,0,1,.84.32,2.61,2.61,0,0,1,.67.5,2.5,2.5,0,0,1,.48.69,3,3,0,0,1,.25.9,9.89,9.89,0,0,1,.08,1.31v5a2.5,2.5,0,0,1-.09.71,1.29,1.29,0,0,1-.7.82,1.38,1.38,0,0,1-.55.1,1.37,1.37,0,0,1-.54-.1,1.18,1.18,0,0,1-.43-.31,1.24,1.24,0,0,1-.27-.51,2.17,2.17,0,0,1-.1-.71v-4.35c0-.28,0-.53,0-.76a4.33,4.33,0,0,0-.06-.58,1.62,1.62,0,0,0-.37-.84,1.16,1.16,0,0,0-.39-.26,1.6,1.6,0,0,0-.56-.09,1.69,1.69,0,0,0-.5.08,1.61,1.61,0,0,0-.47.24,1.53,1.53,0,0,0-.41.35,2.18,2.18,0,0,0-.31.46,3.18,3.18,0,0,0-.22.9,13.79,13.79,0,0,0-.07,1.41Zm15.3,3.61v-.33a4.2,4.2,0,0,1-.48.54,4.08,4.08,0,0,1-.49.45,3.77,3.77,0,0,1-.54.34,6,6,0,0,1-.58.25,4.4,4.4,0,0,1-.65.15,5.64,5.64,0,0,1-.73,0,4.26,4.26,0,0,1-.89-.09,2.86,2.86,0,0,1-.8-.3,2.79,2.79,0,0,1-.66-.46,3.14,3.14,0,0,1-.49-.6,3.08,3.08,0,0,1-.36-1,6.2,6.2,0,0,1-.12-1.36v-5.13a1.65,1.65,0,0,1,.35-1.17,1.12,1.12,0,0,1,.4-.28,1.29,1.29,0,0,1,.53-.1,1.24,1.24,0,0,1,.52.1,1.33,1.33,0,0,1,.43.28,1.7,1.7,0,0,1,.35,1.17v4.14a6.93,6.93,0,0,0,0,.82,5.56,5.56,0,0,0,.11.69,1.75,1.75,0,0,0,.22.54,1.65,1.65,0,0,0,.33.41,1.14,1.14,0,0,0,.47.26,1.8,1.8,0,0,0,.6.09,2,2,0,0,0,.64-.1,2.36,2.36,0,0,0,.6-.29,2.27,2.27,0,0,0,.49-.44,2.21,2.21,0,0,0,.34-.57,2.8,2.8,0,0,0,.17-.87c0-.4.05-.91.05-1.54v-3.14a2.4,2.4,0,0,1,.09-.69,1.15,1.15,0,0,1,.28-.48,1.12,1.12,0,0,1,.4-.28,1.29,1.29,0,0,1,.53-.1,1.24,1.24,0,0,1,.52.1,1.15,1.15,0,0,1,.41.28,1.7,1.7,0,0,1,.35,1.17v7.5a2.49,2.49,0,0,1-.08.64,1.27,1.27,0,0,1-.25.46,1.13,1.13,0,0,1-.39.28,1.28,1.28,0,0,1-.48.09,1.21,1.21,0,0,1-.48-.09,1,1,0,0,1-.4-.3,1.33,1.33,0,0,1-.26-.45,1.93,1.93,0,0,1-.09-.62ZM205.5,110v.31a6.92,6.92,0,0,1,.72-.78A3.9,3.9,0,0,1,207,109a3.62,3.62,0,0,1,.87-.32,4.49,4.49,0,0,1,1-.1,3.85,3.85,0,0,1,1,.11,4.25,4.25,0,0,1,.86.33,2.9,2.9,0,0,1,.7.54,3.7,3.7,0,0,1,.72,1.22,3.12,3.12,0,0,1,.11.53,5.63,5.63,0,0,1,.06.63c0,.23,0,.49,0,.77v4.82a2.29,2.29,0,0,1-.09.68,1.25,1.25,0,0,1-.26.5,1.06,1.06,0,0,1-.41.29,1.24,1.24,0,0,1-.52.1,1.16,1.16,0,0,1-.93-.41,1.19,1.19,0,0,1-.28-.49,2.31,2.31,0,0,1-.09-.67v-4.31a6.43,6.43,0,0,0-.09-1.14,3,3,0,0,0-.26-.82,1.12,1.12,0,0,0-.54-.51,2,2,0,0,0-.88-.17,2.07,2.07,0,0,0-.66.1,2.08,2.08,0,0,0-1.09.8,2.69,2.69,0,0,0-.35.65,4.82,4.82,0,0,0-.14.83c0,.36-.05.8-.05,1.32v3.25a2.29,2.29,0,0,1-.09.68,1.25,1.25,0,0,1-.26.5,1.21,1.21,0,0,1-.43.29,1.24,1.24,0,0,1-.52.1,1.19,1.19,0,0,1-.51-.1,1.2,1.2,0,0,1-.41-.31,1.17,1.17,0,0,1-.27-.49,2,2,0,0,1-.09-.67V110a2.21,2.21,0,0,1,.08-.66,1.22,1.22,0,0,1,.25-.45.89.89,0,0,1,.37-.27,1.14,1.14,0,0,1,.5-.09,1.19,1.19,0,0,1,.33,0,1.15,1.15,0,0,1,.29.11,1.64,1.64,0,0,1,.25.21,1.12,1.12,0,0,1,.31.64,2,2,0,0,1,0,.43Zm12,0v7.48a2.29,2.29,0,0,1-.09.68,1.28,1.28,0,0,1-.28.5,1.1,1.1,0,0,1-.42.29,1.27,1.27,0,0,1-.52.1,1.19,1.19,0,0,1-.93-.41,1.75,1.75,0,0,1-.35-1.16v-7.4a1.7,1.7,0,0,1,.35-1.17,1.25,1.25,0,0,1,.41-.28,1.4,1.4,0,0,1,1,0,1.19,1.19,0,0,1,.42.28,1.31,1.31,0,0,1,.28.47,2,2,0,0,1,.09.62Zm-1.29-2.68a1.57,1.57,0,0,1-.49-.08,1.51,1.51,0,0,1-.42-.25,1.18,1.18,0,0,1-.29-.4,1.51,1.51,0,0,1-.1-.53,1.4,1.4,0,0,1,.1-.51,1.28,1.28,0,0,1,.29-.4,1.54,1.54,0,0,1,.43-.27,1.51,1.51,0,0,1,.48-.08,1.53,1.53,0,0,1,.49.07,1.23,1.23,0,0,1,.41.24,1,1,0,0,1,.3.4,1.55,1.55,0,0,1,.09.55,1.42,1.42,0,0,1-.09.52,1.15,1.15,0,0,1-.28.41,1.51,1.51,0,0,1-.42.25,1.64,1.64,0,0,1-.5.08Zm11,10.26v-.26c-.17.2-.34.37-.51.54a4.09,4.09,0,0,1-.52.43,2.55,2.55,0,0,1-.52.33,5,5,0,0,1-.58.24,6,6,0,0,1-.61.15c-.22,0-.44,0-.67,0a3.76,3.76,0,0,1-.9-.1,3.41,3.41,0,0,1-.83-.29,4.46,4.46,0,0,1-.74-.48,3.76,3.76,0,0,1-.62-.64,4.18,4.18,0,0,1-.51-.8,5.63,5.63,0,0,1-.38-.91,6.84,6.84,0,0,1-.22-1,7.8,7.8,0,0,1-.08-1.1,7.2,7.2,0,0,1,.3-2.17,4.26,4.26,0,0,1,.89-1.62,4,4,0,0,1,1.37-1,4.45,4.45,0,0,1,1.76-.34,5.43,5.43,0,0,1,1,.1,3.94,3.94,0,0,1,.86.29,4.57,4.57,0,0,1,.75.49,4.82,4.82,0,0,1,.74.7v-3.83a2.4,2.4,0,0,1,.09-.69,1.34,1.34,0,0,1,.23-.51.92.92,0,0,1,.39-.31,1.21,1.21,0,0,1,.52-.1,1.42,1.42,0,0,1,.52.09,1,1,0,0,1,.39.28,1.19,1.19,0,0,1,.24.46,2.54,2.54,0,0,1,.07.65v11.42a2.49,2.49,0,0,1-.08.64,1.27,1.27,0,0,1-.25.46,1.13,1.13,0,0,1-.39.28,1.35,1.35,0,0,1-.5.09A1.21,1.21,0,0,1,228,119a1,1,0,0,1-.4-.3,1.29,1.29,0,0,1-.26-.46,2,2,0,0,1-.09-.62Zm-5.08-3.81a5.86,5.86,0,0,0,.08,1,3.93,3.93,0,0,0,.25.82,2.42,2.42,0,0,0,.38.65,2.24,2.24,0,0,0,1.1.75,2.37,2.37,0,0,0,.65.09,2.32,2.32,0,0,0,.65-.09,2,2,0,0,0,.6-.26,2.1,2.1,0,0,0,.5-.45,2.66,2.66,0,0,0,.39-.64,3.5,3.5,0,0,0,.26-.83,5.27,5.27,0,0,0,.09-1,4.89,4.89,0,0,0-.09-1,3.34,3.34,0,0,0-.26-.81,3,3,0,0,0-.39-.66,2.51,2.51,0,0,0-.5-.48,2.26,2.26,0,0,0-.61-.29,2.11,2.11,0,0,0-.66-.1,2.09,2.09,0,0,0-.67.1,2,2,0,0,0-1.1.78,2.39,2.39,0,0,0-.36.67,3.55,3.55,0,0,0-.24.82,5.49,5.49,0,0,0-.07.93Zm16.68,3.82a7.37,7.37,0,0,1-.93.64,5.39,5.39,0,0,1-.9.45,4,4,0,0,1-.93.28,5.72,5.72,0,0,1-1,.09,4,4,0,0,1-.93-.1,3.33,3.33,0,0,1-.82-.29,3.22,3.22,0,0,1-.67-.47,2.39,2.39,0,0,1-.49-.6,2.74,2.74,0,0,1-.41-1.45,3,3,0,0,1,.17-1,2.86,2.86,0,0,1,.51-.83,3.11,3.11,0,0,1,.8-.62,4.06,4.06,0,0,1,1.05-.37l.42-.1.8-.15.91-.2.76-.17c.46-.12,1-.25,1.51-.41a4.2,4.2,0,0,0-.13-.88,1.73,1.73,0,0,0-.27-.61,1.12,1.12,0,0,0-.57-.37,3.19,3.19,0,0,0-1-.12,4.33,4.33,0,0,0-.86.07,2.66,2.66,0,0,0-.62.2,2,2,0,0,0-.46.36,2.1,2.1,0,0,0-.39.48,5.35,5.35,0,0,0-.31.45l-.19.27a.9.9,0,0,1-.65.17,1,1,0,0,1-.75-.29.79.79,0,0,1-.24-.31.94.94,0,0,1-.07-.39,1.78,1.78,0,0,1,.12-.68,2.26,2.26,0,0,1,.36-.66,2.88,2.88,0,0,1,.62-.58,4.21,4.21,0,0,1,.9-.47,5.26,5.26,0,0,1,1.14-.32,8.61,8.61,0,0,1,1.4-.1,7.1,7.1,0,0,1,2.68.4,2.74,2.74,0,0,1,.84.53,2.49,2.49,0,0,1,.54.76,3.68,3.68,0,0,1,.31,1,8.42,8.42,0,0,1,.1,1.31V114c0,.21,0,.44,0,.67v.75a5.49,5.49,0,0,0,.23,1.51c.09.27.15.49.19.66a1.8,1.8,0,0,1,.06.37.82.82,0,0,1-.09.38,1.44,1.44,0,0,1-.28.34,1.07,1.07,0,0,1-.4.25,1.16,1.16,0,0,1-.45.08.93.93,0,0,1-.4-.09,1.54,1.54,0,0,1-.4-.28,5.13,5.13,0,0,1-.39-.46c-.13-.19-.28-.39-.42-.63Zm-.18-3.74c-.18.06-.41.14-.69.21s-.6.16-1,.23l-.91.2-.6.13a2.37,2.37,0,0,0-.41.17,2.2,2.2,0,0,0-.39.26,1,1,0,0,0-.28.38,1.36,1.36,0,0,0-.09.51,1.19,1.19,0,0,0,.12.54,1.34,1.34,0,0,0,.33.47,1.6,1.6,0,0,0,1.16.41,3,3,0,0,0,.74-.09,2.34,2.34,0,0,0,.68-.26,2.54,2.54,0,0,0,.57-.37,1.87,1.87,0,0,0,.38-.48,2.35,2.35,0,0,0,.27-.79,7.58,7.58,0,0,0,.08-1.15v-.37Zm12.26,3.73v-.26c-.18.2-.35.37-.52.54a4.85,4.85,0,0,1-.51.43,2.93,2.93,0,0,1-.53.33,4.39,4.39,0,0,1-.58.24,5.44,5.44,0,0,1-.61.15c-.21,0-.44,0-.67,0a3.82,3.82,0,0,1-.9-.1,3.41,3.41,0,0,1-.83-.29,4.46,4.46,0,0,1-.74-.48,4.18,4.18,0,0,1-.62-.64,5.44,5.44,0,0,1-.51-.8,5.63,5.63,0,0,1-.38-.91,6.84,6.84,0,0,1-.22-1,7.82,7.82,0,0,1-.07-1.1,7.22,7.22,0,0,1,.29-2.17,4.39,4.39,0,0,1,.89-1.62,4,4,0,0,1,1.38-1,4.44,4.44,0,0,1,1.75-.34,5.54,5.54,0,0,1,1,.1,4,4,0,0,1,.85.29,4.64,4.64,0,0,1,.76.49,6,6,0,0,1,.74.7v-3.83a2.84,2.84,0,0,1,.08-.69,1.34,1.34,0,0,1,.23-.51.92.92,0,0,1,.39-.31,1.24,1.24,0,0,1,.52-.1,1.38,1.38,0,0,1,.52.09.85.85,0,0,1,.39.28,1.19,1.19,0,0,1,.24.46,2.54,2.54,0,0,1,.07.65v11.42a2.12,2.12,0,0,1-.08.64,1.27,1.27,0,0,1-.25.46,1,1,0,0,1-.39.28,1.31,1.31,0,0,1-.5.09,1.28,1.28,0,0,1-.48-.09,1,1,0,0,1-.39-.3,1.17,1.17,0,0,1-.27-.46,2.33,2.33,0,0,1-.08-.62Zm-5.09-3.81a5.86,5.86,0,0,0,.08,1,3.93,3.93,0,0,0,.25.82,2.71,2.71,0,0,0,.38.65,2.21,2.21,0,0,0,1.11.75,2.32,2.32,0,0,0,.65.09,2.37,2.37,0,0,0,.65-.09,1.93,1.93,0,0,0,.59-.26,2.1,2.1,0,0,0,.5-.45,2.15,2.15,0,0,0,.39-.64,3.1,3.1,0,0,0,.26-.83,5.27,5.27,0,0,0,.09-1,4.89,4.89,0,0,0-.09-1,3,3,0,0,0-.26-.81,2.4,2.4,0,0,0-.39-.66,2.51,2.51,0,0,0-.5-.48,2.26,2.26,0,0,0-.61-.29,2.05,2.05,0,0,0-.65-.1,2.11,2.11,0,0,0-.68.1,2.26,2.26,0,0,0-.61.29,2.53,2.53,0,0,0-.49.49,3,3,0,0,0-.36.67,4.12,4.12,0,0,0-.24.82,6.76,6.76,0,0,0-.07.93Zm17.36.66h-5.07a4.49,4.49,0,0,0,.11.83,2.8,2.8,0,0,0,.26.72,2.52,2.52,0,0,0,.39.59,2.59,2.59,0,0,0,.52.42,2.16,2.16,0,0,0,.61.26,2.29,2.29,0,0,0,.66.09,3.4,3.4,0,0,0,.45,0l.4-.08.38-.14a3.11,3.11,0,0,0,.71-.44l.31-.26.36-.32c.12-.12.27-.25.44-.4a.58.58,0,0,1,.23-.13,1.11,1.11,0,0,1,.33,0,1.3,1.3,0,0,1,.36,0,.85.85,0,0,1,.28.16.7.7,0,0,1,.19.27,1,1,0,0,1,.06.35,1.1,1.1,0,0,1-.07.38,2.09,2.09,0,0,1-.2.44,3.5,3.5,0,0,1-.35.46,3.59,3.59,0,0,1-.49.45,4.11,4.11,0,0,1-.62.39,6.15,6.15,0,0,1-1.67.53,6.76,6.76,0,0,1-1,.07,6.53,6.53,0,0,1-2.21-.35,4.32,4.32,0,0,1-1.67-1.07,4.56,4.56,0,0,1-1-1.67,6.53,6.53,0,0,1-.35-2.19,6.74,6.74,0,0,1,.09-1.11,6,6,0,0,1,.26-1,4.59,4.59,0,0,1,.41-.9,4.32,4.32,0,0,1,.58-.77,4,4,0,0,1,.73-.62,4.92,4.92,0,0,1,.88-.47,7.86,7.86,0,0,1,1-.27,6.57,6.57,0,0,1,1.11-.09,6.35,6.35,0,0,1,1.41.15,4.32,4.32,0,0,1,1.19.49,4.19,4.19,0,0,1,1,.73,3.81,3.81,0,0,1,.67.92,4.26,4.26,0,0,1,.41,1,4.21,4.21,0,0,1,.14,1,1.82,1.82,0,0,1-.15.79.89.89,0,0,1-.42.47,3.46,3.46,0,0,1-1.57.29ZM258.11,113h4.7a4.43,4.43,0,0,0-.22-1.16,2.47,2.47,0,0,0-.5-.82,2,2,0,0,0-.71-.5,2.65,2.65,0,0,0-.92-.16,2.5,2.5,0,0,0-.88.16,2,2,0,0,0-.71.5,3.46,3.46,0,0,0-.76,2Zm14.53,4.39v-11a2.48,2.48,0,0,1,.1-.75,1.3,1.3,0,0,1,.29-.53,1.09,1.09,0,0,1,.44-.33,1.75,1.75,0,0,1,.57-.1,1.7,1.7,0,0,1,.57.1,1.31,1.31,0,0,1,.46.33,1.29,1.29,0,0,1,.28.52,2.5,2.5,0,0,1,.1.76v11a2.37,2.37,0,0,1-.1.74,1.38,1.38,0,0,1-.28.54,1.31,1.31,0,0,1-.46.33,1.48,1.48,0,0,1-.57.1,1.43,1.43,0,0,1-.56-.1,1.19,1.19,0,0,1-.45-.33,1.27,1.27,0,0,1-.29-.54,2.37,2.37,0,0,1-.1-.74Zm8.14-7.38v.31a6.06,6.06,0,0,1,.71-.78,3.9,3.9,0,0,1,.78-.54,3.54,3.54,0,0,1,.88-.32,4.49,4.49,0,0,1,1-.1,3.72,3.72,0,0,1,1,.11,4.25,4.25,0,0,1,.86.33,3,3,0,0,1,.71.54,3.41,3.41,0,0,1,.5.72,3.75,3.75,0,0,1,.21.5,2.4,2.4,0,0,1,.12.53q0,.28.06.63c0,.23,0,.49,0,.77v4.82a2.7,2.7,0,0,1-.08.68,1.26,1.26,0,0,1-.27.5,1,1,0,0,1-.4.29,1.29,1.29,0,0,1-.53.1,1.16,1.16,0,0,1-.93-.41,1.19,1.19,0,0,1-.28-.49,2.31,2.31,0,0,1-.09-.67v-4.31a6.43,6.43,0,0,0-.09-1.14,2.73,2.73,0,0,0-.26-.82,1.09,1.09,0,0,0-.53-.51,2,2,0,0,0-.89-.17,2.07,2.07,0,0,0-.66.1,2.25,2.25,0,0,0-.6.3,2.33,2.33,0,0,0-.49.5,2.36,2.36,0,0,0-.34.65,4,4,0,0,0-.14.83,12.23,12.23,0,0,0-.06,1.32v3.25a2.29,2.29,0,0,1-.09.68,1.14,1.14,0,0,1-.26.5,1.18,1.18,0,0,1-.42.29,1.32,1.32,0,0,1-.53.1,1.25,1.25,0,0,1-.51-.1,1.08,1.08,0,0,1-.4-.31,1.19,1.19,0,0,1-.28-.49,2.31,2.31,0,0,1-.09-.67V110a2.59,2.59,0,0,1,.08-.66,1.22,1.22,0,0,1,.25-.45.92.92,0,0,1,.38-.27,1.1,1.1,0,0,1,.49-.09,1.15,1.15,0,0,1,.33,0,1,1,0,0,1,.29.11,1.64,1.64,0,0,1,.25.21,1.55,1.55,0,0,1,.2.28,1.17,1.17,0,0,1,.11.36,2,2,0,0,1,0,.43Zm9.51-1.2h.29V107.2c0-.21,0-.4,0-.57a2.58,2.58,0,0,1,0-.42,1.91,1.91,0,0,1,.06-.33,1.11,1.11,0,0,1,.12-.27,1.08,1.08,0,0,1,.18-.24,1.21,1.21,0,0,1,.26-.2,1.48,1.48,0,0,1,.29-.12,1.24,1.24,0,0,1,.33,0,1.28,1.28,0,0,1,.48.09,1.24,1.24,0,0,1,.42.28,1.13,1.13,0,0,1,.22.27,1.2,1.2,0,0,1,.13.33,4.23,4.23,0,0,1,0,.43c0,.17,0,.37,0,.58v1.77h.95a1.75,1.75,0,0,1,.48.06.79.79,0,0,1,.35.19.89.89,0,0,1,.22.3,1,1,0,0,1,.07.38.84.84,0,0,1-.1.44.68.68,0,0,1-.3.28,1.4,1.4,0,0,1-.5.16,3.6,3.6,0,0,1-.69.05h-.48v4.76c0,.2,0,.38,0,.54s0,.29,0,.39a1.32,1.32,0,0,0,.09.3.6.6,0,0,0,.4.4,1.69,1.69,0,0,0,.35,0l.28,0,.34-.06.35-.06h.25a.66.66,0,0,1,.31.06.75.75,0,0,1,.26.19.83.83,0,0,1,.19.27,1,1,0,0,1,.06.35,1,1,0,0,1-.17.55,1.4,1.4,0,0,1-.51.4,2.54,2.54,0,0,1-.83.25,6.38,6.38,0,0,1-1.13.08,4.81,4.81,0,0,1-1.07-.1,2.5,2.5,0,0,1-.78-.31,1.94,1.94,0,0,1-.51-.48,2.22,2.22,0,0,1-.3-.64,4.81,4.81,0,0,1-.15-.85c0-.32-.05-.68-.05-1.08v-5h-.35a1.83,1.83,0,0,1-.49-.06.82.82,0,0,1-.36-.21.86.86,0,0,1-.22-.29.87.87,0,0,1-.07-.37,1,1,0,0,1,.08-.38.93.93,0,0,1,.23-.3,1,1,0,0,1,.38-.19,2,2,0,0,1,.51-.06Zm14,5.67h-5.07a4.49,4.49,0,0,0,.1.83,2.82,2.82,0,0,0,.27.72,2,2,0,0,0,.39.59,2.13,2.13,0,0,0,.52.42,2,2,0,0,0,.6.26,2.39,2.39,0,0,0,.66.09,3.29,3.29,0,0,0,.45,0l.4-.08.38-.14a2,2,0,0,0,.36-.19,3.27,3.27,0,0,0,.36-.25c.1-.09.21-.17.3-.26a4.64,4.64,0,0,0,.36-.32l.44-.4a.7.7,0,0,1,.24-.13,1,1,0,0,1,.32,0,1.38,1.38,0,0,1,.37,0,.72.72,0,0,1,.27.16.61.61,0,0,1,.19.27.78.78,0,0,1,.07.35,1.13,1.13,0,0,1-.08.38,2.09,2.09,0,0,1-.2.44,2.8,2.8,0,0,1-.35.46,3.48,3.48,0,0,1-.48.45,4.23,4.23,0,0,1-.63.39,4.94,4.94,0,0,1-.77.31,4.56,4.56,0,0,1-.9.22,6.63,6.63,0,0,1-1,.07,6.55,6.55,0,0,1-2.22-.35,4.32,4.32,0,0,1-1.67-1.07,4.69,4.69,0,0,1-1-1.67,6.54,6.54,0,0,1-.34-2.19,6.75,6.75,0,0,1,.08-1.11,7.06,7.06,0,0,1,.26-1,5.26,5.26,0,0,1,.41-.9,4.37,4.37,0,0,1,.59-.77,3.92,3.92,0,0,1,.72-.62,5,5,0,0,1,.89-.47,7.71,7.71,0,0,1,1-.27,6.74,6.74,0,0,1,1.11-.09,6.38,6.38,0,0,1,1.42.15,4.32,4.32,0,0,1,1.19.49,4.21,4.21,0,0,1,1.63,1.65,4.71,4.71,0,0,1,.41,1,4.19,4.19,0,0,1,.13,1,2,2,0,0,1-.14.79,1,1,0,0,1-.42.47,3.51,3.51,0,0,1-1.57.29ZM299.19,113h4.7a4.42,4.42,0,0,0-.23-1.16,2.45,2.45,0,0,0-.49-.82,2,2,0,0,0-.71-.5,2.69,2.69,0,0,0-.92-.16,2.56,2.56,0,0,0-.89.16,2,2,0,0,0-.71.5,3.46,3.46,0,0,0-.75,2Zm11.94,2.37v2.16a2.29,2.29,0,0,1-.09.68,1.17,1.17,0,0,1-.28.5,1.06,1.06,0,0,1-.41.29,1.3,1.3,0,0,1-.52.1,1.22,1.22,0,0,1-.51-.1,1.18,1.18,0,0,1-.42-.29,1.26,1.26,0,0,1-.27-.5,2.7,2.7,0,0,1-.08-.68v-7.21a2.24,2.24,0,0,1,.31-1.31,1.11,1.11,0,0,1,.95-.43,1.05,1.05,0,0,1,.93.4,1.49,1.49,0,0,1,.22.51,3.41,3.41,0,0,1,.09.7,6.06,6.06,0,0,1,.47-.7,4,4,0,0,1,.48-.51,1.73,1.73,0,0,1,.57-.3,2.39,2.39,0,0,1,.73-.1,3.1,3.1,0,0,1,.81.1,3.85,3.85,0,0,1,.79.3,1.73,1.73,0,0,1,.57.48,1.19,1.19,0,0,1,.11,1,1,1,0,0,1-.26.36,1,1,0,0,1-.33.23.94.94,0,0,1-.36.08,1.32,1.32,0,0,1-.25,0l-.43-.13a4.07,4.07,0,0,0-.53-.13,2.42,2.42,0,0,0-.45,0,1.46,1.46,0,0,0-.93.29,1.64,1.64,0,0,0-.31.37,2.51,2.51,0,0,0-.25.52,5.41,5.41,0,0,0-.17.64c0,.24-.07.49-.1.76s0,.57,0,.9,0,.69,0,1.08ZM325.68,114v3.44a2.5,2.5,0,0,1-.09.71,1.25,1.25,0,0,1-.28.51,1.15,1.15,0,0,1-.42.31,1.42,1.42,0,0,1-.55.1,1.33,1.33,0,0,1-.54-.1,1.15,1.15,0,0,1-.42-.31,1.13,1.13,0,0,1-.27-.51,2.19,2.19,0,0,1-.09-.71V113.3a14.23,14.23,0,0,0-.06-1.51,2.27,2.27,0,0,0-.14-.5,1.74,1.74,0,0,0-.23-.4,1.17,1.17,0,0,0-.93-.35,2.33,2.33,0,0,0-1.05.22,1.37,1.37,0,0,0-.62.66,6,6,0,0,0-.41,2.5v3.5a2.5,2.5,0,0,1-.09.71,1.29,1.29,0,0,1-.7.82,1.32,1.32,0,0,1-.53.1,1.37,1.37,0,0,1-.54-.1,1.18,1.18,0,0,1-.43-.31,1.38,1.38,0,0,1-.28-.51,2.5,2.5,0,0,1-.09-.71V110a2.43,2.43,0,0,1,.08-.64,1.41,1.41,0,0,1,.25-.47,1.17,1.17,0,0,1,.89-.38,1.21,1.21,0,0,1,.48.08,1.36,1.36,0,0,1,.41.26,1.25,1.25,0,0,1,.27.44,1.84,1.84,0,0,1,.08.56v.25a5.14,5.14,0,0,1,.7-.7,4.12,4.12,0,0,1,.74-.49,4.42,4.42,0,0,1,.82-.29,4.26,4.26,0,0,1,.89-.1,4.4,4.4,0,0,1,.92.1,3.51,3.51,0,0,1,.77.29,2.73,2.73,0,0,1,.64.49,3.71,3.71,0,0,1,.51.7,5.05,5.05,0,0,1,.68-.7,4.05,4.05,0,0,1,.73-.49,4.13,4.13,0,0,1,.79-.29,4,4,0,0,1,.86-.1,4.48,4.48,0,0,1,1,.11,3.25,3.25,0,0,1,.84.32,3,3,0,0,1,.67.5,2.28,2.28,0,0,1,.47.69,2.75,2.75,0,0,1,.26.9,10,10,0,0,1,.07,1.31v5a2.19,2.19,0,0,1-.09.71,1.13,1.13,0,0,1-.27.51,1.15,1.15,0,0,1-.42.31,1.43,1.43,0,0,1-.56.1,1.27,1.27,0,0,1-1-.41,1.53,1.53,0,0,1-.27-.51,2.5,2.5,0,0,1-.09-.71v-4.35c0-.28,0-.53,0-.76a4.33,4.33,0,0,0-.06-.58,1.62,1.62,0,0,0-.37-.84,1.11,1.11,0,0,0-.4-.26,1.51,1.51,0,0,0-.55-.09,1.64,1.64,0,0,0-.5.08,1.61,1.61,0,0,0-.47.24,1.57,1.57,0,0,0-.42.35,2.15,2.15,0,0,0-.3.46,3.18,3.18,0,0,0-.22.9,11.41,11.41,0,0,0-.07,1.41Zm15.3,3.61v-.33a5.11,5.11,0,0,1-.48.54,5,5,0,0,1-.49.45,5.35,5.35,0,0,1-.54.34,5.22,5.22,0,0,1-.59.25,4.27,4.27,0,0,1-.64.15,5.8,5.8,0,0,1-.74,0,4.17,4.17,0,0,1-.88-.09,2.93,2.93,0,0,1-.81-.3,2.73,2.73,0,0,1-.65-.46,2.8,2.8,0,0,1-.49-.6,3.08,3.08,0,0,1-.37-1,6.88,6.88,0,0,1-.12-1.36v-5.13a1.7,1.7,0,0,1,.35-1.17,1.15,1.15,0,0,1,.41-.28,1.24,1.24,0,0,1,.52-.1,1.29,1.29,0,0,1,.53.1,1.33,1.33,0,0,1,.43.28,1.7,1.7,0,0,1,.34,1.17v4.14a6.81,6.81,0,0,0,.05.82,4.16,4.16,0,0,0,.11.69,2,2,0,0,0,.21.54,2.28,2.28,0,0,0,.33.41,1.28,1.28,0,0,0,.47.26,1.89,1.89,0,0,0,.6.09,2,2,0,0,0,.65-.1,2.36,2.36,0,0,0,.6-.29,2.2,2.2,0,0,0,.83-1,3.13,3.13,0,0,0,.17-.87c0-.4,0-.91,0-1.54v-3.14a2.4,2.4,0,0,1,.09-.69,1.27,1.27,0,0,1,.28-.48,1.25,1.25,0,0,1,.41-.28,1.27,1.27,0,0,1,.52-.1,1.29,1.29,0,0,1,.53.1,1.25,1.25,0,0,1,.41.28,1.7,1.7,0,0,1,.35,1.17v7.5a2.11,2.11,0,0,1-.09.64,1.43,1.43,0,0,1-.24.46,1.08,1.08,0,0,1-.4.28,1.21,1.21,0,0,1-.48.09,1.28,1.28,0,0,1-.48-.09,1.08,1.08,0,0,1-.39-.3,1.07,1.07,0,0,1-.26-.45,1.93,1.93,0,0,1-.09-.62Zm7.36-7.63v.31a5.45,5.45,0,0,1,.72-.78,3.58,3.58,0,0,1,.77-.54,3.86,3.86,0,0,1,.88-.32,4.49,4.49,0,0,1,1-.1,3.72,3.72,0,0,1,1,.11,4.25,4.25,0,0,1,.86.33,2.77,2.77,0,0,1,.71.54,3.08,3.08,0,0,1,.5.72,2.81,2.81,0,0,1,.22.5,3.12,3.12,0,0,1,.11.53,5.63,5.63,0,0,1,.06.63c0,.23,0,.49,0,.77v4.82a2.29,2.29,0,0,1-.09.68,1.39,1.39,0,0,1-.26.5,1.14,1.14,0,0,1-.41.29,1.29,1.29,0,0,1-.53.1,1.19,1.19,0,0,1-.93-.41,1.31,1.31,0,0,1-.28-.49,2.31,2.31,0,0,1-.09-.67v-4.31a7.63,7.63,0,0,0-.08-1.14,2.72,2.72,0,0,0-.27-.82,1.05,1.05,0,0,0-.53-.51,2,2,0,0,0-.88-.17,2,2,0,0,0-.66.1,2.3,2.3,0,0,0-.61.3,2.08,2.08,0,0,0-.48.5,2.39,2.39,0,0,0-.35.65,4,4,0,0,0-.14.83,12.23,12.23,0,0,0-.06,1.32v3.25a2.31,2.31,0,0,1-.08.68,1.39,1.39,0,0,1-.26.5,1.21,1.21,0,0,1-.43.29,1.29,1.29,0,0,1-.53.1,1.18,1.18,0,0,1-.5-.1,1.12,1.12,0,0,1-.41-.31,1.19,1.19,0,0,1-.28-.49,2.31,2.31,0,0,1-.09-.67V110a2.19,2.19,0,0,1,.09-.66,1.21,1.21,0,0,1,.24-.45.92.92,0,0,1,.38-.27,1.14,1.14,0,0,1,.5-.09,1.12,1.12,0,0,1,.32,0,1.21,1.21,0,0,1,.3.11,1.57,1.57,0,0,1,.24.21,1,1,0,0,1,.2.28,1.52,1.52,0,0,1,.12.36,2,2,0,0,1,0,.43Zm12,0v7.48a2.29,2.29,0,0,1-.09.68,1.17,1.17,0,0,1-.28.5,1,1,0,0,1-.41.29,1.27,1.27,0,0,1-.52.1,1.16,1.16,0,0,1-.93-.41,1.75,1.75,0,0,1-.35-1.16v-7.4a1.7,1.7,0,0,1,.35-1.17,1.15,1.15,0,0,1,.41-.28,1.24,1.24,0,0,1,.52-.1,1.27,1.27,0,0,1,.52.1,1.07,1.07,0,0,1,.41.28,1.18,1.18,0,0,1,.28.47,2,2,0,0,1,.09.62ZM359,107.32a1.57,1.57,0,0,1-.49-.08,1.27,1.27,0,0,1-.42-.25,1,1,0,0,1-.29-.4,1.32,1.32,0,0,1-.1-.53,1.22,1.22,0,0,1,.1-.51,1,1,0,0,1,.29-.4,1.41,1.41,0,0,1,.43-.27,1.46,1.46,0,0,1,.48-.08,1.43,1.43,0,0,1,.48.07,1.14,1.14,0,0,1,.41.24.85.85,0,0,1,.3.4,1.55,1.55,0,0,1,.09.55,1.42,1.42,0,0,1-.09.52,1,1,0,0,1-.28.41,1.27,1.27,0,0,1-.42.25,1.53,1.53,0,0,1-.49.08Zm13.25,8.53a1.8,1.8,0,0,1-.08.5,2.3,2.3,0,0,1-.22.53,3.57,3.57,0,0,1-.87,1,3.92,3.92,0,0,1-.67.45,4.5,4.5,0,0,1-.83.35,4.82,4.82,0,0,1-1,.24,7.4,7.4,0,0,1-1.07.07,6.1,6.1,0,0,1-2.13-.35,4.21,4.21,0,0,1-1.62-1.05,4.57,4.57,0,0,1-1-1.63,6.31,6.31,0,0,1-.33-2.11,6.6,6.6,0,0,1,.16-1.51,5.65,5.65,0,0,1,.46-1.31,4.68,4.68,0,0,1,.75-1.09,4,4,0,0,1,1-.79,4.45,4.45,0,0,1,1.27-.51,6.72,6.72,0,0,1,2.47-.1,5.15,5.15,0,0,1,.88.22,4.15,4.15,0,0,1,.77.33,5.19,5.19,0,0,1,.65.42c.19.16.36.32.52.48a3.27,3.27,0,0,1,.37.51,2.25,2.25,0,0,1,.23.51,1.73,1.73,0,0,1,.08.49,1,1,0,0,1-.09.42,1,1,0,0,1-.26.35,1.32,1.32,0,0,1-.38.25,1.33,1.33,0,0,1-.45.08.82.82,0,0,1-.53-.17,1.13,1.13,0,0,1-.24-.21l-.25-.32a4.69,4.69,0,0,0-.47-.63,3,3,0,0,0-.52-.45,1.82,1.82,0,0,0-.58-.27,2.8,2.8,0,0,0-.74-.08,2.35,2.35,0,0,0-1,.22,2.14,2.14,0,0,0-.81.67,3.05,3.05,0,0,0-.53,1,5.48,5.48,0,0,0-.17,1.4,5.17,5.17,0,0,0,.17,1.34,3.09,3.09,0,0,0,.53,1,2,2,0,0,0,.38.38,2.07,2.07,0,0,0,.45.27,2.38,2.38,0,0,0,1.05.23,2.81,2.81,0,0,0,.73-.09,1.88,1.88,0,0,0,.61-.28,2.44,2.44,0,0,0,.52-.45,2.81,2.81,0,0,0,.45-.64c.08-.14.17-.27.25-.39a1.94,1.94,0,0,1,.28-.29,1,1,0,0,1,.3-.19,1.12,1.12,0,0,1,.8,0,1,1,0,0,1,.35.26,1.33,1.33,0,0,1,.24.38,1.1,1.1,0,0,1,.08.4ZM377.1,110v7.48a2.29,2.29,0,0,1-.09.68,1.17,1.17,0,0,1-.28.5,1,1,0,0,1-.41.29,1.3,1.3,0,0,1-.52.1,1.16,1.16,0,0,1-.93-.41,1.69,1.69,0,0,1-.35-1.16v-7.4a1.65,1.65,0,0,1,.35-1.17,1.07,1.07,0,0,1,.41-.28,1.24,1.24,0,0,1,.52-.1,1.3,1.3,0,0,1,.52.1,1.07,1.07,0,0,1,.41.28,1.18,1.18,0,0,1,.28.47,2,2,0,0,1,.09.62Zm-1.28-2.68a1.53,1.53,0,0,1-.49-.08,1.27,1.27,0,0,1-.42-.25,1,1,0,0,1-.29-.4,1.32,1.32,0,0,1-.1-.53,1.22,1.22,0,0,1,.1-.51,1,1,0,0,1,.29-.4,1.37,1.37,0,0,1,.42-.27,1.53,1.53,0,0,1,.49-.08,1.47,1.47,0,0,1,.48.07,1.14,1.14,0,0,1,.41.24.85.85,0,0,1,.3.4,1.55,1.55,0,0,1,.09.55,1.42,1.42,0,0,1-.09.52,1,1,0,0,1-.28.41,1.27,1.27,0,0,1-.42.25,1.57,1.57,0,0,1-.49.08Zm6.35,2.66v.31a6.19,6.19,0,0,1,.74-.78,4.51,4.51,0,0,1,.77-.54,3.63,3.63,0,0,1,.85-.32,4.1,4.1,0,0,1,.94-.11,4.37,4.37,0,0,1,1.15.16,4.12,4.12,0,0,1,1.05.47,3.6,3.6,0,0,1,.9.75,5,5,0,0,1,.69,1,6.19,6.19,0,0,1,.58,2.8,8.53,8.53,0,0,1-.08,1.15,6.87,6.87,0,0,1-.25,1,5.28,5.28,0,0,1-.93,1.69,4.51,4.51,0,0,1-.64.6,3.66,3.66,0,0,1-.74.43,3.61,3.61,0,0,1-.84.28,4.41,4.41,0,0,1-.89.09,4.09,4.09,0,0,1-1-.11,2.6,2.6,0,0,1-.84-.34,3.73,3.73,0,0,1-.74-.55,5.63,5.63,0,0,1-.7-.75v3.89a2.14,2.14,0,0,1-.31,1.28,1.1,1.1,0,0,1-.93.43,1.51,1.51,0,0,1-.61-.11.67.67,0,0,1-.36-.34,2.72,2.72,0,0,1-.24-1.28V110a2.59,2.59,0,0,1,.08-.66,1.1,1.1,0,0,1,.25-.45,1,1,0,0,1,.38-.27,1.14,1.14,0,0,1,.5-.09,1.35,1.35,0,0,1,.5.09,1.7,1.7,0,0,1,.39.27,1.27,1.27,0,0,1,.26.47,2,2,0,0,1,.09.62Zm5.07,3.77a5.83,5.83,0,0,0-.08-1,3.83,3.83,0,0,0-.23-.81,3.6,3.6,0,0,0-.38-.64,2.27,2.27,0,0,0-.5-.48,2,2,0,0,0-.58-.29,2,2,0,0,0-.64-.1,2.31,2.31,0,0,0-1,.2,2.54,2.54,0,0,0-.82.63,2.91,2.91,0,0,0-.55,1,5.15,5.15,0,0,0-.18,1.44,4.79,4.79,0,0,0,.18,1.37,3.23,3.23,0,0,0,.55,1,2.54,2.54,0,0,0,.82.63,2.28,2.28,0,0,0,1.61.13,1.83,1.83,0,0,0,.58-.28,2,2,0,0,0,.5-.47,2.71,2.71,0,0,0,.38-.65,3.73,3.73,0,0,0,.25-.84,5.86,5.86,0,0,0,.08-1Zm11.22,3.84a8.09,8.09,0,0,1-.92.64,5.39,5.39,0,0,1-.9.45,4,4,0,0,1-.93.28,5.72,5.72,0,0,1-1,.09,4.11,4.11,0,0,1-.94-.1,3.12,3.12,0,0,1-.81-.29,3,3,0,0,1-.67-.47,2.42,2.42,0,0,1-.5-.6,2.9,2.9,0,0,1-.23-2.45,2.63,2.63,0,0,1,.5-.83,3.29,3.29,0,0,1,.8-.62,4.06,4.06,0,0,1,1.05-.37l.42-.1.8-.15.91-.2.76-.17c.47-.12,1-.25,1.52-.41a4.2,4.2,0,0,0-.13-.88,1.73,1.73,0,0,0-.28-.61,1.08,1.08,0,0,0-.57-.37,3.16,3.16,0,0,0-.94-.12,4.51,4.51,0,0,0-.87.07,2.57,2.57,0,0,0-.61.2,2.09,2.09,0,0,0-.47.36,2.06,2.06,0,0,0-.38.48c-.13.17-.23.32-.32.45s-.14.21-.19.27a.88.88,0,0,1-.64.17,1.08,1.08,0,0,1-.76-.29.87.87,0,0,1-.23-.31.93.93,0,0,1-.08-.39,2,2,0,0,1,.12-.68,2.3,2.3,0,0,1,.37-.66,2.82,2.82,0,0,1,.61-.58,4.21,4.21,0,0,1,.9-.47,5.26,5.26,0,0,1,1.14-.32,8.65,8.65,0,0,1,1.41-.1,7.17,7.17,0,0,1,2.68.4,2.69,2.69,0,0,1,.83.53,2.19,2.19,0,0,1,.54.76,3.68,3.68,0,0,1,.31,1,7.35,7.35,0,0,1,.1,1.31V114c0,.21,0,.44,0,.67s0,.49,0,.75a5.16,5.16,0,0,0,.24,1.51c.08.27.15.49.19.66a1.8,1.8,0,0,1,.06.37.72.72,0,0,1-.1.38,1.19,1.19,0,0,1-.27.34,1.16,1.16,0,0,1-.4.25,1.21,1.21,0,0,1-.46.08.92.92,0,0,1-.39-.09,1.39,1.39,0,0,1-.4-.28,3.12,3.12,0,0,1-.39-.46c-.14-.19-.28-.39-.43-.63Zm-.17-3.74c-.19.06-.42.14-.69.21s-.6.16-1,.23l-.92.2-.6.13a2.28,2.28,0,0,0-.4.17,1.66,1.66,0,0,0-.39.26.94.94,0,0,0-.28.38,1.36,1.36,0,0,0-.09.51,1.33,1.33,0,0,0,.11.54,1.67,1.67,0,0,0,.33.47,1.62,1.62,0,0,0,1.17.41,3.06,3.06,0,0,0,.74-.09A2.45,2.45,0,0,0,397,117a2.47,2.47,0,0,0,.56-.37,2.16,2.16,0,0,0,.39-.48,2.36,2.36,0,0,0,.26-.79,6.39,6.39,0,0,0,.09-1.15v-.37Zm5.16,3.63V106.25a2.29,2.29,0,0,1,.09-.68,1.39,1.39,0,0,1,.26-.5,1.35,1.35,0,0,1,1.46-.29,1.36,1.36,0,0,1,.43.29,1.39,1.39,0,0,1,.26.5,2.29,2.29,0,0,1,.09.68v11.23a2.29,2.29,0,0,1-.09.68,1.28,1.28,0,0,1-.28.5,1.06,1.06,0,0,1-.41.29,1.27,1.27,0,0,1-.52.1,1.2,1.2,0,0,1-.94-.41A1.75,1.75,0,0,1,403.45,117.48Z"/><polygon class="b" points="25.32 37.25 37.81 18.88 50.3 37.25 37.81 55.62 25.32 37.25"/><polygon class="c" points="25.32 74 37.81 55.62 50.3 74 37.81 92.37 25.32 74"/><polygon class="d" points="37.81 55.62 50.3 37.25 62.79 55.62 50.3 74 37.81 55.62"/><polygon class="d" points="12.83 55.62 25.32 37.25 37.81 55.62 25.32 74 12.83 55.62"/><polygon class="c" points="0.34 74 12.83 55.62 25.32 74 12.83 92.37 0.34 74"/><polygon class="c" points="50.3 74 62.79 55.62 75.28 74 62.79 92.37 50.3 74"/><polygon class="e" points="62.79 18.88 75.28 0.5 87.77 18.88 75.28 37.25 62.79 18.88"/><polygon class="d" points="62.79 55.62 75.28 37.25 87.77 55.62 75.28 74 62.79 55.62"/><polygon class="b" points="75.28 37.25 87.77 18.88 100.26 37.25 87.77 55.62 75.28 37.25"/><polygon class="b" points="50.3 37.25 62.79 18.88 75.28 37.25 62.79 55.62 50.3 37.25"/><polygon class="d" points="87.77 55.62 100.26 37.25 112.75 55.62 100.26 74 87.77 55.62"/><polygon class="c" points="75.28 74 87.77 55.62 100.26 74 87.77 92.37 75.28 74"/><polygon class="c" points="100.26 74 112.75 55.62 125.23 74 112.75 92.37 100.26 74"/><path class="a" d="M160.57,69.6h-5.7V88.38a4.58,4.58,0,0,1-.19,1.41,2.51,2.51,0,0,1-.53,1,2.24,2.24,0,0,1-.84.6,2.68,2.68,0,0,1-1,.2,2.77,2.77,0,0,1-1.05-.2,2.13,2.13,0,0,1-.83-.6,3.34,3.34,0,0,1-.76-2.38V69.6h-5.7a3.63,3.63,0,0,1-1.17-.16,2.1,2.1,0,0,1-.82-.45,2,2,0,0,1-.49-.68,2.23,2.23,0,0,1-.16-.88,2.17,2.17,0,0,1,.17-.89,1.73,1.73,0,0,1,.52-.69,1.87,1.87,0,0,1,.81-.44,4.23,4.23,0,0,1,1.14-.14h16.64a4.25,4.25,0,0,1,1.19.15,2.26,2.26,0,0,1,.84.46,2.11,2.11,0,0,1,.48.68,2.34,2.34,0,0,1,0,1.75,2.11,2.11,0,0,1-.48.68,2.39,2.39,0,0,1-.85.45,3.78,3.78,0,0,1-1.18.16Zm10.22,15v4a4.09,4.09,0,0,1-.17,1.28,2.24,2.24,0,0,1-.51.92,2.16,2.16,0,0,1-.77.54,2.4,2.4,0,0,1-1,.19,2.26,2.26,0,0,1-.94-.19,2.42,2.42,0,0,1-.79-.54,2.46,2.46,0,0,1-.49-.92,4.43,4.43,0,0,1-.16-1.28V75.23a4.14,4.14,0,0,1,.59-2.43,2,2,0,0,1,1.76-.82,2,2,0,0,1,1.73.76,2.76,2.76,0,0,1,.41,1,5.94,5.94,0,0,1,.17,1.29,12,12,0,0,1,.87-1.29,5.89,5.89,0,0,1,.9-1,3.28,3.28,0,0,1,1.06-.57,4.38,4.38,0,0,1,1.36-.19,5.8,5.8,0,0,1,1.49.19,7.42,7.42,0,0,1,1.47.57,3.08,3.08,0,0,1,1.06.89,2.06,2.06,0,0,1,.2,1.92,1.72,1.72,0,0,1-.47.66,2.08,2.08,0,0,1-.62.44,1.72,1.72,0,0,1-.68.14,1.91,1.91,0,0,1-.45-.09c-.21,0-.49-.13-.81-.24a6.84,6.84,0,0,0-1-.24,4.32,4.32,0,0,0-.84-.08,2.61,2.61,0,0,0-1.73.54,2.89,2.89,0,0,0-.59.69,4.84,4.84,0,0,0-.46,1,7.66,7.66,0,0,0-.3,1.19c-.08.43-.15.9-.2,1.41s-.07,1.07-.1,1.68-.05,1.28-.05,2ZM194,88.85A14.67,14.67,0,0,1,192.29,90a11.35,11.35,0,0,1-1.67.84,7.55,7.55,0,0,1-1.73.52,10.8,10.8,0,0,1-1.92.17,7.4,7.4,0,0,1-1.73-.19,6.38,6.38,0,0,1-1.52-.54,6,6,0,0,1-1.24-.87,5,5,0,0,1-.93-1.11,5.17,5.17,0,0,1-.75-2.71,5.07,5.07,0,0,1,.32-1.85,4.84,4.84,0,0,1,.94-1.54,5.49,5.49,0,0,1,1.49-1.15,6.76,6.76,0,0,1,1.94-.7l.79-.18c.38-.08.87-.18,1.49-.29s1.17-.25,1.69-.37l1.41-.31c.87-.22,1.81-.47,2.82-.76a9,9,0,0,0-.24-1.65,3.39,3.39,0,0,0-.52-1.13,2,2,0,0,0-1.05-.68,5.93,5.93,0,0,0-1.77-.22,8.34,8.34,0,0,0-1.6.13,3.91,3.91,0,0,0-1.14.37,3.57,3.57,0,0,0-.87.66,4.59,4.59,0,0,0-.72.89c-.24.33-.43.61-.58.84s-.27.39-.36.5a1.55,1.55,0,0,1-1.19.33,2,2,0,0,1-1.41-.55,1.51,1.51,0,0,1-.44-.57,1.86,1.86,0,0,1-.14-.73,3.48,3.48,0,0,1,.23-1.27,4.13,4.13,0,0,1,.68-1.22,5.13,5.13,0,0,1,1.14-1.08,8.14,8.14,0,0,1,1.67-.87,9.18,9.18,0,0,1,2.13-.6,15.94,15.94,0,0,1,2.6-.19,13.1,13.1,0,0,1,5,.76,4.93,4.93,0,0,1,1.55,1,4.6,4.6,0,0,1,1,1.41,6.87,6.87,0,0,1,.57,1.87,13.62,13.62,0,0,1,.19,2.43v2.85c0,.4,0,.81,0,1.25s0,.9,0,1.39a9.82,9.82,0,0,0,.44,2.81c.16.51.28.92.35,1.23a3.08,3.08,0,0,1,.12.69,1.4,1.4,0,0,1-.19.71,2.52,2.52,0,0,1-.5.62,2.18,2.18,0,0,1-.75.47,2.4,2.4,0,0,1-.84.15,1.78,1.78,0,0,1-.74-.17,2.72,2.72,0,0,1-.74-.52,7.56,7.56,0,0,1-.73-.86c-.25-.34-.52-.73-.79-1.16Zm-.32-7c-.35.13-.78.26-1.29.4s-1.11.29-1.78.43l-1.7.37-1.12.24a5.86,5.86,0,0,0-.75.3,4.74,4.74,0,0,0-.73.5,1.82,1.82,0,0,0-.52.71,2.52,2.52,0,0,0-.16,1,2.36,2.36,0,0,0,.21,1,2.72,2.72,0,0,0,.62.88,3.06,3.06,0,0,0,2.16.76,5.65,5.65,0,0,0,1.37-.17,5.55,5.55,0,0,0,1.27-.48,5.05,5.05,0,0,0,1-.7,3.52,3.52,0,0,0,.72-.89,4.61,4.61,0,0,0,.49-1.46,13.21,13.21,0,0,0,.16-2.15v-.69ZM190.8,65.09h2.38a2.42,2.42,0,0,1,.67.06c.16,0,.24.1.24.19s-.09.17-.25.36-.42.45-.77.8-.65.65-1,1-.66.64-1,1a10.46,10.46,0,0,1-.84.73,4.44,4.44,0,0,1-.53.39,5.34,5.34,0,0,1-1.06.37,4.56,4.56,0,0,1-1.11.13c-.51,0-.76-.14-.76-.43a1.09,1.09,0,0,1,.11-.41,6.92,6.92,0,0,1,.36-.64l.79-1.48a7.74,7.74,0,0,1,.64-1.06,2.44,2.44,0,0,1,.56-.56,1.57,1.57,0,0,1,.64-.28,4.89,4.89,0,0,1,.91-.08Zm28,20.18a6.37,6.37,0,0,1-.25,1.85,5.13,5.13,0,0,1-.73,1.55,5.22,5.22,0,0,1-1.2,1.24,6.86,6.86,0,0,1-1.65.92,10.49,10.49,0,0,1-2.11.54,15.24,15.24,0,0,1-2.51.19,13.9,13.9,0,0,1-2.41-.2,9,9,0,0,1-2-.6,9.2,9.2,0,0,1-1.6-.89,6.26,6.26,0,0,1-1.14-1.09,4,4,0,0,1-.87-2.39,2,2,0,0,1,.14-.74,2.12,2.12,0,0,1,.44-.63,1.91,1.91,0,0,1,1.41-.54,2.73,2.73,0,0,1,.67.08,1,1,0,0,1,.48.28,2.46,2.46,0,0,1,.41.44,3.78,3.78,0,0,1,.39.61A6.11,6.11,0,0,0,207,87a4.75,4.75,0,0,0,1,.79,5.24,5.24,0,0,0,2.81.65,4.09,4.09,0,0,0,2.39-.65,2.35,2.35,0,0,0,.68-.7,1.49,1.49,0,0,0,.22-.78,2.37,2.37,0,0,0-.24-1.09,1.75,1.75,0,0,0-.7-.75,6.41,6.41,0,0,0-1.27-.57,19.35,19.35,0,0,0-1.91-.55q-1.25-.3-2.25-.63a17,17,0,0,1-1.79-.67,7.33,7.33,0,0,1-1.41-.78,6.05,6.05,0,0,1-1.08-1,4.06,4.06,0,0,1-.7-1.25,4.44,4.44,0,0,1-.24-1.49,4.53,4.53,0,0,1,.22-1.42,5.11,5.11,0,0,1,.65-1.33,5.51,5.51,0,0,1,1-1.17,7.27,7.27,0,0,1,1.47-.89,8.36,8.36,0,0,1,1.87-.57A11.82,11.82,0,0,1,210,72a14.25,14.25,0,0,1,1.77.11,12.48,12.48,0,0,1,1.59.29,9.85,9.85,0,0,1,1.36.46,7.07,7.07,0,0,1,1.13.59,6.26,6.26,0,0,1,.87.68,4.6,4.6,0,0,1,.65.76,3.26,3.26,0,0,1,.37.78,2.38,2.38,0,0,1,.14.78,2,2,0,0,1-.14.74,1.43,1.43,0,0,1-.41.59,1.68,1.68,0,0,1-.67.41,2.82,2.82,0,0,1-.91.13,2.09,2.09,0,0,1-.69-.1,2.23,2.23,0,0,1-.58-.33c-.16-.14-.34-.32-.54-.52s-.41-.45-.65-.74a4,4,0,0,0-.59-.63,5,5,0,0,0-.67-.49,2.94,2.94,0,0,0-.89-.33,5.65,5.65,0,0,0-1.14-.11,3.92,3.92,0,0,0-2.16.55,2.07,2.07,0,0,0-.65.63,1.36,1.36,0,0,0-.22.77,1.45,1.45,0,0,0,.16.68,1.59,1.59,0,0,0,.49.55,3.81,3.81,0,0,0,.73.45,4.78,4.78,0,0,0,1,.35l1.27.35,1.69.44a20.62,20.62,0,0,1,2,.6,11.25,11.25,0,0,1,1.62.7,6.73,6.73,0,0,1,1.24.84,5.23,5.23,0,0,1,.92,1A3.83,3.83,0,0,1,218.6,84a3.9,3.9,0,0,1,.19,1.25Zm10.4-1.41h-5.57a3.75,3.75,0,0,1-1.12-.15,2.58,2.58,0,0,1-.83-.46,2,2,0,0,1-.65-1.52,2.27,2.27,0,0,1,.17-.86,2,2,0,0,1,.48-.69,2.54,2.54,0,0,1,.82-.43,4.18,4.18,0,0,1,1.13-.15h5.57a4.18,4.18,0,0,1,1.13.15,2.54,2.54,0,0,1,.82.43,2,2,0,0,1,.48.69,2.27,2.27,0,0,1,.17.86,2.05,2.05,0,0,1-1.44,2,3.94,3.94,0,0,1-1.16.15Zm23.72-2.09a11.38,11.38,0,0,1-.17,2.06,9.28,9.28,0,0,1-.52,1.91,8.53,8.53,0,0,1-1.91,3.11A9.26,9.26,0,0,1,248.9,90a8.65,8.65,0,0,1-1.62.86,9,9,0,0,1-1.88.52,12.67,12.67,0,0,1-2.1.17,12.42,12.42,0,0,1-2.08-.17,8.41,8.41,0,0,1-1.85-.52,8.74,8.74,0,0,1-1.63-.86,9.69,9.69,0,0,1-1.4-1.16,9.14,9.14,0,0,1-1.11-1.45,8.81,8.81,0,0,1-.81-1.66,9.38,9.38,0,0,1-.52-1.89,13.67,13.67,0,0,1,0-4.17,10.26,10.26,0,0,1,.52-1.92,9.55,9.55,0,0,1,.81-1.67,8.17,8.17,0,0,1,1.11-1.43,8,8,0,0,1,1.38-1.13,8.58,8.58,0,0,1,1.65-.86,12.22,12.22,0,0,1,1.87-.51A11.44,11.44,0,0,1,243.3,72a10.9,10.9,0,0,1,2.09.19,9.79,9.79,0,0,1,1.89.54,8.82,8.82,0,0,1,1.65.84,7.61,7.61,0,0,1,1.38,1.14,7.89,7.89,0,0,1,1.13,1.44,9.42,9.42,0,0,1,1.31,3.56,12.8,12.8,0,0,1,.16,2.08Zm-4.84,0a10,10,0,0,0-.32-2.62,5.69,5.69,0,0,0-1-2,4.22,4.22,0,0,0-3.47-1.62,4.44,4.44,0,0,0-1.32.19,4.57,4.57,0,0,0-1.17.53,4.32,4.32,0,0,0-.95.91,5.6,5.6,0,0,0-.71,1.26,7.09,7.09,0,0,0-.44,1.54,11.08,11.08,0,0,0-.14,1.78,10.73,10.73,0,0,0,.14,1.76,7.16,7.16,0,0,0,.44,1.53,5,5,0,0,0,1.63,2.16,4,4,0,0,0,1.16.57,4.66,4.66,0,0,0,1.36.19,4.5,4.5,0,0,0,1.95-.41,4.1,4.1,0,0,0,1.52-1.25,7.08,7.08,0,0,0,1.3-4.55Zm24.12,3.5a6.37,6.37,0,0,1-.24,1.85A5.25,5.25,0,0,1,270,89.91a6.86,6.86,0,0,1-1.65.92,10.67,10.67,0,0,1-2.11.54,15.28,15.28,0,0,1-2.52.19,13.87,13.87,0,0,1-2.4-.2,9,9,0,0,1-2-.6,9.2,9.2,0,0,1-1.6-.89,5.67,5.67,0,0,1-1.14-1.09,4,4,0,0,1-.87-2.39,2,2,0,0,1,.14-.74,2.12,2.12,0,0,1,.44-.63,1.91,1.91,0,0,1,1.41-.54,2.73,2.73,0,0,1,.67.08,1.09,1.09,0,0,1,.48.28,2.46,2.46,0,0,1,.41.44,4.62,4.62,0,0,1,.39.61,6.11,6.11,0,0,0,.82,1.12,4.49,4.49,0,0,0,.95.79,5.24,5.24,0,0,0,2.81.65,4.09,4.09,0,0,0,2.39-.65,2.48,2.48,0,0,0,.68-.7,1.49,1.49,0,0,0,.22-.78,2.37,2.37,0,0,0-.24-1.09,1.75,1.75,0,0,0-.7-.75,6.27,6.27,0,0,0-1.28-.57,18.32,18.32,0,0,0-1.9-.55q-1.25-.3-2.25-.63a17,17,0,0,1-1.79-.67,7,7,0,0,1-1.41-.78,5.73,5.73,0,0,1-1.08-1,3.86,3.86,0,0,1-.7-1.25,4.44,4.44,0,0,1-.24-1.49,4.83,4.83,0,0,1,.21-1.42,5.45,5.45,0,0,1,1.71-2.5,7.27,7.27,0,0,1,1.47-.89,8.36,8.36,0,0,1,1.87-.57,11.82,11.82,0,0,1,2.21-.19,14.25,14.25,0,0,1,1.77.11,12.48,12.48,0,0,1,1.59.29,9.85,9.85,0,0,1,1.36.46,7.07,7.07,0,0,1,1.13.59,6.26,6.26,0,0,1,.87.68,4.6,4.6,0,0,1,.65.76,3.26,3.26,0,0,1,.37.78,2.38,2.38,0,0,1,.14.78,2,2,0,0,1-.14.74,1.53,1.53,0,0,1-.41.59,1.68,1.68,0,0,1-.67.41,2.84,2.84,0,0,1-.92.13,2.07,2.07,0,0,1-.68-.1,2.23,2.23,0,0,1-.58-.33c-.16-.14-.34-.32-.54-.52s-.42-.45-.65-.74a4,4,0,0,0-.59-.63,5,5,0,0,0-.67-.49,2.9,2.9,0,0,0-.9-.33,5.48,5.48,0,0,0-1.13-.11,3.92,3.92,0,0,0-2.16.55,2.07,2.07,0,0,0-.65.63,1.36,1.36,0,0,0-.22.77,1.34,1.34,0,0,0,.16.68,1.59,1.59,0,0,0,.49.55,3.81,3.81,0,0,0,.73.45,4.78,4.78,0,0,0,1,.35l1.27.35,1.69.44a20.62,20.62,0,0,1,2,.6,11.75,11.75,0,0,1,1.62.7,6.73,6.73,0,0,1,1.24.84,5.23,5.23,0,0,1,.92,1A3.83,3.83,0,0,1,272,84a4.2,4.2,0,0,1,.18,1.25Zm10.4-1.41H277a3.75,3.75,0,0,1-1.12-.15,2.58,2.58,0,0,1-.83-.46,2,2,0,0,1-.65-1.52,2.27,2.27,0,0,1,.17-.86,1.91,1.91,0,0,1,.48-.69,2.54,2.54,0,0,1,.82-.43A4.18,4.18,0,0,1,277,79.6h5.56a4.2,4.2,0,0,1,1.14.15,2.39,2.39,0,0,1,.81.43,1.94,1.94,0,0,1,.49.69,2.27,2.27,0,0,1,.16.86,2,2,0,0,1-.65,1.52,1.86,1.86,0,0,1-.78.46,4,4,0,0,1-1.17.15Zm14.77,3.36-4.15-16.46V88.6a4.6,4.6,0,0,1-.16,1.29,2.4,2.4,0,0,1-.49.94,2.12,2.12,0,0,1-.76.54,2.46,2.46,0,0,1-1,.19,2.26,2.26,0,0,1-.94-.19,2.32,2.32,0,0,1-.79-.54,2.43,2.43,0,0,1-.49-.93,4.58,4.58,0,0,1-.16-1.3V68.16a4.21,4.21,0,0,1,.21-1.44,1.79,1.79,0,0,1,.65-.87,3.86,3.86,0,0,1,1.06-.43,5.47,5.47,0,0,1,1.33-.15h1.62a9.41,9.41,0,0,1,1.27.07,5,5,0,0,1,.86.18,1.84,1.84,0,0,1,1,1,6.88,6.88,0,0,1,.35.89c.12.37.24.82.37,1.34l3.76,14.16,3.75-14.16c.15-.52.27-1,.39-1.34a7.32,7.32,0,0,1,.33-.89,1.88,1.88,0,0,1,1-1,5.27,5.27,0,0,1,.86-.18,9.41,9.41,0,0,1,1.27-.07h1.62a5.6,5.6,0,0,1,1.36.15,3.33,3.33,0,0,1,1,.43,1.73,1.73,0,0,1,.65.87,4.21,4.21,0,0,1,.21,1.44V88.6a4.6,4.6,0,0,1-.16,1.29,2.53,2.53,0,0,1-.48.94,2.11,2.11,0,0,1-.78.54,2.46,2.46,0,0,1-1,.19,2.27,2.27,0,0,1-1-.19,2.42,2.42,0,0,1-.79-.54,2.54,2.54,0,0,1-.49-.94,5,5,0,0,1-.16-1.29V70.76l-4.15,16.46c-.13.55-.24,1-.35,1.39s-.21.71-.3,1a3.86,3.86,0,0,1-.37.73,4.28,4.28,0,0,1-.57.64,1.92,1.92,0,0,1-.82.47,3.64,3.64,0,0,1-1.09.15,3.76,3.76,0,0,1-.85-.09,2.36,2.36,0,0,1-.71-.31,2.76,2.76,0,0,1-.56-.45,3.09,3.09,0,0,1-.41-.56,3.61,3.61,0,0,1-.33-.65,7.61,7.61,0,0,1-.25-.72,7.2,7.2,0,0,0-.19-.77c-.06-.25-.13-.52-.21-.79Zm39-5.45a11.38,11.38,0,0,1-.17,2.06,9.28,9.28,0,0,1-.52,1.91,8.53,8.53,0,0,1-1.91,3.11A9.26,9.26,0,0,1,332.39,90a8.65,8.65,0,0,1-1.62.86,9,9,0,0,1-1.88.52,12.67,12.67,0,0,1-2.1.17,12.42,12.42,0,0,1-2.08-.17,8.41,8.41,0,0,1-1.85-.52,8.74,8.74,0,0,1-1.63-.86,9.69,9.69,0,0,1-1.4-1.16,9.14,9.14,0,0,1-1.11-1.45,8.81,8.81,0,0,1-.81-1.66,9.38,9.38,0,0,1-.52-1.89,12.87,12.87,0,0,1,0-4.17,10.26,10.26,0,0,1,.52-1.92,9.55,9.55,0,0,1,.81-1.67,8.17,8.17,0,0,1,1.11-1.43,8,8,0,0,1,1.38-1.13,8.58,8.58,0,0,1,1.65-.86,12.22,12.22,0,0,1,1.87-.51,11.44,11.44,0,0,1,2.06-.18,10.9,10.9,0,0,1,2.09.19,9.79,9.79,0,0,1,1.89.54,8.82,8.82,0,0,1,1.65.84,8,8,0,0,1,1.38,1.14,7.89,7.89,0,0,1,1.13,1.44,9.42,9.42,0,0,1,1.31,3.56,12.8,12.8,0,0,1,.16,2.08Zm-4.84,0a10,10,0,0,0-.32-2.62,5.69,5.69,0,0,0-1-2,4.22,4.22,0,0,0-3.47-1.62,4.44,4.44,0,0,0-1.32.19,4.57,4.57,0,0,0-1.17.53,4.32,4.32,0,0,0-.95.91,5.6,5.6,0,0,0-.71,1.26A7.09,7.09,0,0,0,322.2,80a11.08,11.08,0,0,0-.14,1.78,10.73,10.73,0,0,0,.14,1.76,7.16,7.16,0,0,0,.44,1.53,5,5,0,0,0,1.63,2.16,4,4,0,0,0,1.16.57,4.66,4.66,0,0,0,1.36.19,4.5,4.5,0,0,0,1.95-.41,4.1,4.1,0,0,0,1.52-1.25,7.08,7.08,0,0,0,1.3-4.55Zm13-7.11v.57a11.16,11.16,0,0,1,1.34-1.45,6.33,6.33,0,0,1,1.44-1,6.49,6.49,0,0,1,1.63-.6,8.37,8.37,0,0,1,1.84-.2,7.91,7.91,0,0,1,1.79.21,7.37,7.37,0,0,1,1.6.62,5.53,5.53,0,0,1,1.32,1,7.39,7.39,0,0,1,1.33,2.27,5.38,5.38,0,0,1,.21,1,11.48,11.48,0,0,1,.11,1.16q0,.65,0,1.44v8.95a4.43,4.43,0,0,1-.16,1.28,2.46,2.46,0,0,1-.49.92,2.12,2.12,0,0,1-.76.54,2.33,2.33,0,0,1-1,.19,2.21,2.21,0,0,1-1.74-.76,2.24,2.24,0,0,1-.51-.92,4,4,0,0,1-.17-1.25v-8a13,13,0,0,0-.16-2.1,5.47,5.47,0,0,0-.49-1.54,2.15,2.15,0,0,0-1-1,3.8,3.8,0,0,0-1.64-.32,3.86,3.86,0,0,0-1.23.19,4.74,4.74,0,0,0-1.12.57,3.93,3.93,0,0,0-.9.92,4.53,4.53,0,0,0-.65,1.21,8.06,8.06,0,0,0-.26,1.54c-.06.67-.1,1.5-.1,2.47v6a4.43,4.43,0,0,1-.16,1.28,2.46,2.46,0,0,1-.49.92,2.32,2.32,0,0,1-.79.54,2.38,2.38,0,0,1-1,.19,2.26,2.26,0,0,1-.94-.2,2.06,2.06,0,0,1-.76-.56,2.24,2.24,0,0,1-.51-.92,4,4,0,0,1-.17-1.25V74.73a4.37,4.37,0,0,1,.15-1.22,2.18,2.18,0,0,1,.46-.84,1.89,1.89,0,0,1,.71-.52,2.4,2.4,0,0,1,.92-.17,2.35,2.35,0,0,1,.6.08,2.83,2.83,0,0,1,.55.21,2.8,2.8,0,0,1,.46.39,2.3,2.3,0,0,1,.37.52,2.51,2.51,0,0,1,.21.67,3.48,3.48,0,0,1,.08.81Zm17.7-2.24h.54V69.53c0-.4,0-.75,0-1.06a5.39,5.39,0,0,1,.06-.78,3.09,3.09,0,0,1,.11-.62,1.76,1.76,0,0,1,.22-.5,1.89,1.89,0,0,1,.34-.46,2.62,2.62,0,0,1,.49-.37,1.89,1.89,0,0,1,.53-.21,2.15,2.15,0,0,1,.62-.08,2.27,2.27,0,0,1,.89.17,2.12,2.12,0,0,1,.77.51,2,2,0,0,1,.41.51,2.28,2.28,0,0,1,.24.61,7.17,7.17,0,0,1,.09.8c0,.32,0,.68,0,1.08v3.29h1.77a3.08,3.08,0,0,1,.9.11,1.48,1.48,0,0,1,.65.36,1.59,1.59,0,0,1,.41.56,1.78,1.78,0,0,1,.13.7,1.58,1.58,0,0,1-.18.82,1.37,1.37,0,0,1-.57.52,2.91,2.91,0,0,1-.93.3,7.93,7.93,0,0,1-1.28.09h-.9v8.85c0,.38,0,.71,0,1s0,.54,0,.73a2.44,2.44,0,0,0,.17.56,1.6,1.6,0,0,0,.27.46,1.17,1.17,0,0,0,.46.27,2.15,2.15,0,0,0,.66.09l.51,0a6.38,6.38,0,0,0,.64-.12,6.31,6.31,0,0,1,.65-.11l.47,0a1.38,1.38,0,0,1,.57.11,1.59,1.59,0,0,1,.48.36,1.2,1.2,0,0,1,.35.51,1.66,1.66,0,0,1,.12.64,1.72,1.72,0,0,1-.32,1,2.44,2.44,0,0,1-.95.75,4.66,4.66,0,0,1-1.54.47,13,13,0,0,1-2.1.15,9,9,0,0,1-2-.2,4.29,4.29,0,0,1-1.44-.56,3.72,3.72,0,0,1-.95-.9,3.81,3.81,0,0,1-.57-1.2,8.88,8.88,0,0,1-.28-1.57c-.05-.59-.08-1.26-.08-2V75.88h-.65a2.93,2.93,0,0,1-.92-.12,1.44,1.44,0,0,1-.67-.38,1.53,1.53,0,0,1-.4-.55,1.65,1.65,0,0,1-.14-.68,1.63,1.63,0,0,1,.15-.7,1.7,1.7,0,0,1,1.14-.92,3.4,3.4,0,0,1,.95-.11Zm26,10.54H378.8A7.55,7.55,0,0,0,379,84.5a5.85,5.85,0,0,0,.49,1.35,4.24,4.24,0,0,0,.73,1.09,4.36,4.36,0,0,0,1,.79,4.44,4.44,0,0,0,1.12.49,4.81,4.81,0,0,0,1.23.16,5.69,5.69,0,0,0,.83-.06,4.14,4.14,0,0,0,.75-.16,5.83,5.83,0,0,0,.7-.25,4.42,4.42,0,0,0,.68-.36c.23-.15.45-.3.65-.46l.57-.48c.2-.16.42-.36.67-.59s.51-.48.82-.75a1.11,1.11,0,0,1,.44-.24,1.82,1.82,0,0,1,.6-.08,2,2,0,0,1,.68.1,1.44,1.44,0,0,1,.51.3,1.14,1.14,0,0,1,.36.49,1.69,1.69,0,0,1,.11.66,2.14,2.14,0,0,1-.13.71,4.7,4.7,0,0,1-.37.81,5.64,5.64,0,0,1-.66.86,7.23,7.23,0,0,1-.89.84,8.63,8.63,0,0,1-1.17.71,8.89,8.89,0,0,1-1.43.58,8.33,8.33,0,0,1-1.67.41,12.9,12.9,0,0,1-1.91.14,11.91,11.91,0,0,1-4.12-.66,7.94,7.94,0,0,1-3.1-2,8.7,8.7,0,0,1-1.92-3.12,11.94,11.94,0,0,1-.65-4.07,12.51,12.51,0,0,1,.17-2,12,12,0,0,1,.48-1.92,9.37,9.37,0,0,1,.76-1.67,8.88,8.88,0,0,1,2.43-2.6,9.9,9.9,0,0,1,1.65-.86,12.34,12.34,0,0,1,1.88-.5,11.36,11.36,0,0,1,2.06-.18,10.9,10.9,0,0,1,2.62.29,8.08,8.08,0,0,1,2.22.9,8.47,8.47,0,0,1,1.77,1.36,7.56,7.56,0,0,1,1.26,1.71,8.66,8.66,0,0,1,.77,1.92,8,8,0,0,1,.24,1.94,3.79,3.79,0,0,1-.26,1.49,1.78,1.78,0,0,1-.78.86,6.46,6.46,0,0,1-2.93.54Zm-9.42-2.74h8.73a7.6,7.6,0,0,0-.42-2.16,4.41,4.41,0,0,0-.91-1.53,3.58,3.58,0,0,0-1.33-.92,4.56,4.56,0,0,0-1.7-.3,4.4,4.4,0,0,0-1.65.3,3.63,3.63,0,0,0-1.32.92,6.45,6.45,0,0,0-1.4,3.69Zm32.93,5a6.74,6.74,0,0,1-.24,1.85,5.15,5.15,0,0,1-.74,1.55,5.37,5.37,0,0,1-1.19,1.24,6.93,6.93,0,0,1-1.66.92,10.32,10.32,0,0,1-2.11.54,15.15,15.15,0,0,1-2.51.19,13.9,13.9,0,0,1-2.41-.2,8.75,8.75,0,0,1-2-.6,8.85,8.85,0,0,1-1.6-.89,6,6,0,0,1-1.15-1.09,4.1,4.1,0,0,1-.86-2.39,2,2,0,0,1,.13-.74,2.32,2.32,0,0,1,.44-.63,1.92,1.92,0,0,1,1.41-.54,2.76,2.76,0,0,1,.68.08,1.15,1.15,0,0,1,.48.28,3.49,3.49,0,0,1,.41.44,3.78,3.78,0,0,1,.38.61A7.21,7.21,0,0,0,400,87a5,5,0,0,0,.95.79,5.3,5.3,0,0,0,2.82.65,4.06,4.06,0,0,0,2.38-.65,2.24,2.24,0,0,0,.68-.7,1.49,1.49,0,0,0,.22-.78,2.25,2.25,0,0,0-.24-1.09,1.73,1.73,0,0,0-.69-.75,6.81,6.81,0,0,0-1.28-.57,19.08,19.08,0,0,0-1.9-.55c-.83-.2-1.59-.41-2.25-.63a17.27,17.27,0,0,1-1.8-.67,7,7,0,0,1-1.4-.78,6.13,6.13,0,0,1-1.09-1,4.06,4.06,0,0,1-.7-1.25,4.44,4.44,0,0,1-.24-1.49,4.84,4.84,0,0,1,.22-1.42,5.11,5.11,0,0,1,.65-1.33,5.56,5.56,0,0,1,1.06-1.17,7,7,0,0,1,1.47-.89,8.44,8.44,0,0,1,1.86-.57,11.85,11.85,0,0,1,2.22-.19,14.21,14.21,0,0,1,1.76.11,13,13,0,0,1,1.6.29,9.71,9.71,0,0,1,1.35.46,7.18,7.18,0,0,1,1.14.59,6.78,6.78,0,0,1,.86.68,4.16,4.16,0,0,1,.65.76,3.3,3.3,0,0,1,.38.78,2.36,2.36,0,0,1,.13.78,2,2,0,0,1-.13.74,1.53,1.53,0,0,1-.41.59,1.65,1.65,0,0,1-.68.41,2.82,2.82,0,0,1-.91.13,2.17,2.17,0,0,1-.69-.1,2.35,2.35,0,0,1-.57-.33c-.17-.14-.35-.32-.55-.52s-.41-.45-.65-.74a3.55,3.55,0,0,0-.59-.63,4.41,4.41,0,0,0-.67-.49,2.84,2.84,0,0,0-.89-.33,5.62,5.62,0,0,0-1.13-.11,4,4,0,0,0-2.17.55,2.18,2.18,0,0,0-.65.63,1.44,1.44,0,0,0-.22.77,1.34,1.34,0,0,0,.17.68,1.66,1.66,0,0,0,.48.55,3.81,3.81,0,0,0,.73.45,5,5,0,0,0,1,.35l1.28.35,1.68.44a19.84,19.84,0,0,1,2,.6,11.25,11.25,0,0,1,1.62.7,7.18,7.18,0,0,1,1.25.84,5.59,5.59,0,0,1,.92,1,4.08,4.08,0,0,1,.53,1.09A3.9,3.9,0,0,1,411.73,85.27Z"/><path class="a" d="M31.79,115.58a3.88,3.88,0,0,1-.09.82,4.59,4.59,0,0,1-.3.88,5.28,5.28,0,0,1-.49.89,7,7,0,0,1-.72.89,5.61,5.61,0,0,1-.94.79,6.5,6.5,0,0,1-1.17.63,6.35,6.35,0,0,1-1.38.41,9.1,9.1,0,0,1-1.61.14c-.44,0-.85,0-1.24,0a9.36,9.36,0,0,1-1.12-.18,7.47,7.47,0,0,1-1-.33,5.5,5.5,0,0,1-.91-.45,5.89,5.89,0,0,1-.84-.6,6.22,6.22,0,0,1-.77-.77,7.19,7.19,0,0,1-1.09-1.72c-.15-.32-.28-.65-.4-1s-.21-.69-.29-1a10.63,10.63,0,0,1-.18-1.13c0-.39,0-.78,0-1.19a12.35,12.35,0,0,1,.14-1.87,8.69,8.69,0,0,1,.43-1.67,8,8,0,0,1,1.65-2.68,7.25,7.25,0,0,1,1.16-1,8.41,8.41,0,0,1,1.36-.72,8.23,8.23,0,0,1,1.49-.43,9.08,9.08,0,0,1,1.57-.14,8.76,8.76,0,0,1,1.89.2,6.57,6.57,0,0,1,1.66.6,7.88,7.88,0,0,1,1.37.88,5.34,5.34,0,0,1,1,1.07,5,5,0,0,1,.62,1.14,3,3,0,0,1,.21,1.08,1.61,1.61,0,0,1-.1.53,2,2,0,0,1-.29.48,2,2,0,0,1-.45.32,1.33,1.33,0,0,1-.54.11,1.87,1.87,0,0,1-.55-.08,1.38,1.38,0,0,1-.41-.24,2.12,2.12,0,0,1-.33-.4c-.11-.17-.24-.38-.38-.63a6.49,6.49,0,0,0-.7-1.06,4.18,4.18,0,0,0-.81-.77,3.63,3.63,0,0,0-1-.44,4.08,4.08,0,0,0-1.19-.16,4,4,0,0,0-1.83.4,3.94,3.94,0,0,0-1.42,1.16,5.58,5.58,0,0,0-.91,1.88,9.76,9.76,0,0,0-.31,2.54,10.43,10.43,0,0,0,.14,1.75,6.91,6.91,0,0,0,.39,1.43,4.4,4.4,0,0,0,.66,1.1,3.67,3.67,0,0,0,.87.8,3.71,3.71,0,0,0,1.06.46,4.51,4.51,0,0,0,1.23.16,4.65,4.65,0,0,0,1.33-.18,3.4,3.4,0,0,0,1.1-.53,4,4,0,0,0,.87-.88,4.85,4.85,0,0,0,.62-1.2,4.86,4.86,0,0,1,.23-.59c.1-.17.19-.33.29-.47a1.06,1.06,0,0,1,.41-.31,1.79,1.79,0,0,1,.6-.1,1.49,1.49,0,0,1,1,.41,1.39,1.39,0,0,1,.41,1ZM34.91,119V106.11a2.94,2.94,0,0,1,.11-.88,1.73,1.73,0,0,1,.34-.63,1.43,1.43,0,0,1,.53-.39,1.76,1.76,0,0,1,.66-.12,1.79,1.79,0,0,1,.68.12,1.57,1.57,0,0,1,.88,1,3,3,0,0,1,.11.9V119a2.87,2.87,0,0,1-.11.87,1.78,1.78,0,0,1-.34.64,1.66,1.66,0,0,1-.54.38,1.79,1.79,0,0,1-.68.12,1.71,1.71,0,0,1-.65-.12,1.66,1.66,0,0,1-.54-.38,1.78,1.78,0,0,1-.34-.64,2.87,2.87,0,0,1-.11-.87Zm12.56-.74-2.63-10.43v11.3a2.88,2.88,0,0,1-.1.82,1.7,1.7,0,0,1-.31.6,1.28,1.28,0,0,1-.49.34,1.54,1.54,0,0,1-.63.12,1.46,1.46,0,0,1-.6-.12,1.39,1.39,0,0,1-.5-.34,1.51,1.51,0,0,1-.31-.59,2.9,2.9,0,0,1-.1-.83v-13a2.62,2.62,0,0,1,.13-.91,1.14,1.14,0,0,1,.41-.56,3,3,0,0,1,.68-.27,3.61,3.61,0,0,1,.84-.09h1a6.37,6.37,0,0,1,.8,0,2.7,2.7,0,0,1,.55.12,1.12,1.12,0,0,1,.61.62,3.84,3.84,0,0,1,.22.56c.08.24.16.52.24.85l2.38,9,2.38-9c.09-.33.17-.61.25-.85a3,3,0,0,1,.21-.56,1.14,1.14,0,0,1,.62-.62,2.75,2.75,0,0,1,.54-.12,6.44,6.44,0,0,1,.81,0h1a3.72,3.72,0,0,1,.86.09,2.59,2.59,0,0,1,.65.27,1.14,1.14,0,0,1,.41.56,2.6,2.6,0,0,1,.14.91v13a3.28,3.28,0,0,1-.1.82,1.7,1.7,0,0,1-.31.6,1.31,1.31,0,0,1-.5.34,1.61,1.61,0,0,1-.63.12,1.45,1.45,0,0,1-.59-.12,1.39,1.39,0,0,1-.5-.34,1.55,1.55,0,0,1-.31-.6,2.86,2.86,0,0,1-.11-.82v-11.3l-2.63,10.43c-.08.35-.15.64-.22.89s-.13.44-.19.6a2.25,2.25,0,0,1-.24.46,2.3,2.3,0,0,1-.35.41,1.36,1.36,0,0,1-.52.3,2.48,2.48,0,0,1-.7.09,2.2,2.2,0,0,1-.53-.06,1.14,1.14,0,0,1-.45-.19,1.48,1.48,0,0,1-.36-.29,2.11,2.11,0,0,1-.26-.35,3.17,3.17,0,0,1-.21-.41c-.06-.15-.11-.3-.16-.46s-.07-.32-.11-.49-.09-.32-.14-.5Zm17.33-2.12H61.27a2.48,2.48,0,0,1-.71-.1,1.75,1.75,0,0,1-.52-.29,1.26,1.26,0,0,1-.41-1,1.4,1.4,0,0,1,.1-.54,1.31,1.31,0,0,1,.31-.44,1.55,1.55,0,0,1,.51-.27,2.61,2.61,0,0,1,.72-.1H64.8a2.61,2.61,0,0,1,.72.1,1.37,1.37,0,0,1,.51.27,1.31,1.31,0,0,1,.31.44,1.41,1.41,0,0,1,.11.54,1.26,1.26,0,0,1-.42,1,1.3,1.3,0,0,1-.49.29,2.7,2.7,0,0,1-.74.1Zm14.46-9H75.65V119a3,3,0,0,1-.12.89,1.61,1.61,0,0,1-.34.62,1.44,1.44,0,0,1-.53.38,1.87,1.87,0,0,1-1.32,0,1.44,1.44,0,0,1-.53-.38,2.16,2.16,0,0,1-.48-1.51V107.11H68.71A2.37,2.37,0,0,1,68,107a1.26,1.26,0,0,1-.52-.29,1.31,1.31,0,0,1-.31-.43,1.54,1.54,0,0,1-.1-.55,1.43,1.43,0,0,1,.11-.56,1.19,1.19,0,0,1,.33-.45,1.47,1.47,0,0,1,.51-.28,3.11,3.11,0,0,1,.72-.08H79.26a2.5,2.5,0,0,1,.76.1,1.42,1.42,0,0,1,.53.29,1.31,1.31,0,0,1,.31.43,1.56,1.56,0,0,1,0,1.1,1.31,1.31,0,0,1-.31.43A1.41,1.41,0,0,1,80,107a2.39,2.39,0,0,1-.75.1Zm14.31,0H90V119a3,3,0,0,1-.11.89,1.75,1.75,0,0,1-.34.62,1.52,1.52,0,0,1-.53.38,1.76,1.76,0,0,1-.66.12,1.81,1.81,0,0,1-.67-.12,1.4,1.4,0,0,1-.52-.38,2.11,2.11,0,0,1-.49-1.51V107.11H83a2.28,2.28,0,0,1-.74-.1,1.26,1.26,0,0,1-.52-.29,1.18,1.18,0,0,1-.31-.43,1.35,1.35,0,0,1-.1-.55,1.43,1.43,0,0,1,.1-.56,1.19,1.19,0,0,1,.33-.45,1.52,1.52,0,0,1,.52-.28,3,3,0,0,1,.72-.08H93.57a2.39,2.39,0,0,1,.75.1,1.35,1.35,0,0,1,.53.29,1.18,1.18,0,0,1,.31.43,1.56,1.56,0,0,1,0,1.1,1.18,1.18,0,0,1-.31.43,1.41,1.41,0,0,1-.54.29,2.32,2.32,0,0,1-.74.1Zm9.2,11.17-2.63-10.43v11.3a3.28,3.28,0,0,1-.1.82,1.7,1.7,0,0,1-.31.6,1.28,1.28,0,0,1-.49.34,1.54,1.54,0,0,1-.63.12,1.46,1.46,0,0,1-.6-.12,1.39,1.39,0,0,1-.5-.34,1.51,1.51,0,0,1-.31-.59,2.88,2.88,0,0,1-.11-.83v-13a2.6,2.6,0,0,1,.14-.91,1.14,1.14,0,0,1,.41-.56,3,3,0,0,1,.68-.27,3.58,3.58,0,0,1,.83-.09h1a6.44,6.44,0,0,1,.81,0,2.87,2.87,0,0,1,.55.12,1.12,1.12,0,0,1,.61.62,3.84,3.84,0,0,1,.22.56c.08.24.16.52.24.85l2.38,9,2.38-9c.09-.33.17-.61.25-.85a3,3,0,0,1,.21-.56,1.14,1.14,0,0,1,.62-.62,2.59,2.59,0,0,1,.54-.12,6.44,6.44,0,0,1,.81,0h1a3.79,3.79,0,0,1,.86.09,2.59,2.59,0,0,1,.65.27,1.14,1.14,0,0,1,.41.56,2.6,2.6,0,0,1,.14.91v13a3.28,3.28,0,0,1-.1.82,1.7,1.7,0,0,1-.31.6,1.31,1.31,0,0,1-.5.34,1.61,1.61,0,0,1-.63.12,1.45,1.45,0,0,1-.59-.12,1.31,1.31,0,0,1-.5-.34,1.55,1.55,0,0,1-.31-.6,2.86,2.86,0,0,1-.11-.82v-11.3l-2.63,10.43c-.08.35-.15.64-.22.89s-.13.44-.19.6a2.25,2.25,0,0,1-.24.46,2,2,0,0,1-.36.41,1.26,1.26,0,0,1-.51.3,2.53,2.53,0,0,1-.7.09,2.2,2.2,0,0,1-.53-.06,1.14,1.14,0,0,1-.45-.19,1.48,1.48,0,0,1-.36-.29,2.11,2.11,0,0,1-.26-.35,3.17,3.17,0,0,1-.21-.41c-.06-.15-.11-.3-.16-.46a5,5,0,0,0-.12-.49C102.86,118.62,102.82,118.46,102.77,118.28Z"/></svg>